<?xml version="1.0" encoding="UTF-8"?>
<svg xmlns="http://www.w3.org/2000/svg" viewBox="0 0 32 32">
    <path style="text-indent:0;text-align:start;line-height:normal;text-transform:none;block-progression:tb;-inkscape-font-specification:Bitstream Vera Sans" d="M 17.09375 6.03125 L 17.09375 8.09375 L 17.09375 12 L 4 12 L 3 12 L 3 13 L 3 19 L 3 20 L 4 20 L 17.09375 20 L 17.09375 23.90625 L 17.09375 25.96875 L 18.71875 24.6875 L 28.625 16.78125 L 29.59375 16 L 28.625 15.21875 L 18.71875 7.3125 L 17.09375 6.03125 z M 19.09375 10.1875 L 26.40625 16 L 19.09375 21.8125 L 19.09375 19 L 19.09375 18 L 18.09375 18 L 5 18 L 5 14 L 18.09375 14 L 19.09375 14 L 19.09375 13 L 19.09375 10.1875 z" overflow="visible" font-family="Bitstream Vera Sans"/>
</svg>