<?xml version="1.0" encoding="UTF-8" standalone="no"?>
<svg
   xmlns:dc="http://purl.org/dc/elements/1.1/"
   xmlns:cc="http://creativecommons.org/ns#"
   xmlns:rdf="http://www.w3.org/1999/02/22-rdf-syntax-ns#"
   xmlns:svg="http://www.w3.org/2000/svg"
   xmlns="http://www.w3.org/2000/svg"
   xmlns:sodipodi="http://sodipodi.sourceforge.net/DTD/sodipodi-0.dtd"
   xmlns:inkscape="http://www.inkscape.org/namespaces/inkscape"
   viewBox="0 0 32 32"
   version="1.1"
   id="svg4"
   sodipodi:docname="Arrow.svg"
   inkscape:version="0.92.3 (2405546, 2018-03-11)">
  <metadata
     id="metadata10">
    <rdf:RDF>
      <cc:Work
         rdf:about="">
        <dc:format>image/svg+xml</dc:format>
        <dc:type
           rdf:resource="http://purl.org/dc/dcmitype/StillImage" />
      </cc:Work>
    </rdf:RDF>
  </metadata>
  <defs
     id="defs8" />
  <sodipodi:namedview
     pagecolor="#ffffff"
     bordercolor="#666666"
     borderopacity="1"
     objecttolerance="10"
     gridtolerance="10"
     guidetolerance="10"
     inkscape:pageopacity="0"
     inkscape:pageshadow="2"
     inkscape:window-width="1622"
     inkscape:window-height="766"
     id="namedview6"
     showgrid="false"
     inkscape:zoom="10.429825"
     inkscape:cx="-9.5719813"
     inkscape:cy="38.425926"
     inkscape:window-x="0"
     inkscape:window-y="0"
     inkscape:window-maximized="0"
     inkscape:current-layer="svg4" />
  <path
     style="line-height:normal;font-family:'Bitstream Vera Sans';-inkscape-font-specification:'Bitstream Vera Sans';text-indent:0;text-align:start;text-transform:none;overflow:visible"
     d="m 17.09375,6.0312498 v 2.0625 V 12 h -13.0937504 -1 v 1 6 1 h 1 13.0937504 v 3.90625 2.0625 L 18.71875,24.6875 28.625,16.78125 29.59375,16 28.625,15.21875 18.71875,7.3124998 Z m 2,4.1562502 7.3125,5.8125 -7.3125,5.8125 V 19 18 h -1 -13.0937504 v -4 h 13.0937504 1 v -1 z"
     overflow="visible"
     id="path2"
     inkscape:connector-curvature="0" />
  <path
     style="fill:#1a1a1a;stroke:#808080;stroke-width:0.01309051"
     d="m -19.707812,-8.8275387 c -0.07076,-0.07541 -0.642587,-0.6822042 -1.270715,-1.3484283 -0.628132,-0.666225 -1.154963,-1.233094 -1.170736,-1.259709 -0.01793,-0.03029 -0.02867,-0.06665 -0.02867,-0.09716 0,-0.03052 0.01073,-0.06688 0.02867,-0.09716 0.01575,-0.02661 0.535563,-0.58606 1.155091,-1.243219 0.619524,-0.657158 1.191391,-1.263955 1.270821,-1.348435 0.165419,-0.175942 0.194862,-0.188499 0.247501,-0.105568 l 0.0305,0.04802 v 0.666683 0.666685 h 2.377974 2.377974 v -0.666683 -0.666683 l 0.03049,-0.04802 c 0.05546,-0.08736 0.07629,-0.07566 0.314956,0.176924 1.467284,1.55291 2.33503,2.480058 2.358463,2.519907 0.03762,0.06399 0.03762,0.131118 0,0.195124 -0.02264,0.03855 -1.522337,1.6396351 -2.411753,2.5748355 -0.183232,0.1926679 -0.20913,0.2047386 -0.261666,0.1219769 l -0.03049,-0.04803 v -0.6995434 -0.699543 h -2.377974 -2.377974 v 0.699543 0.6995434 l -0.0305,0.04803 c -0.05169,0.081416 -0.08339,0.069239 -0.231962,-0.089086 z"
     id="path4541"
     inkscape:connector-curvature="0"
     inkscape:export-xdpi="150.09"
     inkscape:export-ydpi="150.09" />
  <path
     inkscape:export-ydpi="151.60117"
     inkscape:export-xdpi="151.60117"
     inkscape:connector-curvature="0"
     id="path4547"
     d="m -20.061125,-1.7426138 c 0.07541,-0.05882 0.682204,-0.534152 1.348428,-1.0562839 0.666225,-0.522136 1.233094,-0.960066 1.259709,-0.973177 0.03029,-0.0149 0.06665,-0.02383 0.09716,-0.02383 0.03052,0 0.06688,0.0089 0.09716,0.02383 0.02661,0.01309 0.58606,0.445188 1.243219,0.960172 0.657158,0.5149799 1.263955,0.9903459 1.348435,1.0563719 0.175942,0.137505 0.188499,0.161979 0.105568,0.205736 l -0.04802,0.02535 h -0.666683 -0.666685 V 0.45225026 2.4289463 h 0.666683 0.666683 l 0.04802,0.02534 c 0.08736,0.0461 0.07566,0.06342 -0.176924,0.261807 -1.55291,1.219683 -2.480058,1.940999 -2.519907,1.960477 -0.06399,0.03127 -0.131118,0.03127 -0.195124,0 -0.03855,-0.01882 -1.639635,-1.265445 -2.574835,-2.004774 -0.192668,-0.152312 -0.204739,-0.17384 -0.121977,-0.21751 l 0.04803,-0.02534 h 0.699543 0.699543 V 0.45225026 -1.5244448 h -0.699543 -0.699543 l -0.04803,-0.02535 c -0.08142,-0.04297 -0.06924,-0.06932 0.08909,-0.192819 z"
     style="fill:#1a1a1a;stroke:#808080;stroke-width:0.01193501" />
</svg>
