<?xml version="1.0" encoding="UTF-8" standalone="no"?>
<svg
   xmlns:dc="http://purl.org/dc/elements/1.1/"
   xmlns:cc="http://creativecommons.org/ns#"
   xmlns:rdf="http://www.w3.org/1999/02/22-rdf-syntax-ns#"
   xmlns:svg="http://www.w3.org/2000/svg"
   xmlns="http://www.w3.org/2000/svg"
   xmlns:sodipodi="http://sodipodi.sourceforge.net/DTD/sodipodi-0.dtd"
   xmlns:inkscape="http://www.inkscape.org/namespaces/inkscape"
   viewBox="0 0 12 12"
   version="1.1"
   id="svg4"
   sodipodi:docname="ArrowsZoomRps.svg"
   inkscape:version="0.92.3 (2405546, 2018-03-11)"
   width="12"
   height="12"
   inkscape:export-filename="C:\Users\Administrateur.000\Documents\JJazzLab\src\JJazzLab-X\Graphics/VisibleRpsBis.png"
   inkscape:export-xdpi="128"
   inkscape:export-ydpi="128"
   shape-rendering="crispEdges">
  <metadata
     id="metadata10">
    <rdf:RDF>
      <cc:Work
         rdf:about="">
        <dc:format>image/svg+xml</dc:format>
        <dc:type
           rdf:resource="http://purl.org/dc/dcmitype/StillImage" />
        <dc:title />
      </cc:Work>
    </rdf:RDF>
  </metadata>
  <defs
     id="defs8">
    <marker
       inkscape:stockid="Arrow2Lend"
       orient="auto"
       refY="0"
       refX="0"
       id="Arrow2Lend"
       style="overflow:visible"
       inkscape:isstock="true">
      <path
         id="path4546"
         style="fill:#000000;fill-opacity:1;fill-rule:evenodd;stroke:#000000;stroke-width:0.625;stroke-linejoin:round;stroke-opacity:1"
         d="M 8.7185878,4.0337352 -2.2072895,0.01601326 8.7185884,-4.0017078 c -1.7454984,2.3720609 -1.7354408,5.6174519 -6e-7,8.035443 z"
         transform="matrix(-1.1,0,0,-1.1,-1.1,0)"
         inkscape:connector-curvature="0" />
    </marker>
    <marker
       inkscape:stockid="Arrow2Lstart"
       orient="auto"
       refY="0"
       refX="0"
       id="Arrow2Lstart"
       style="overflow:visible"
       inkscape:isstock="true">
      <path
         id="path4543"
         style="fill:#000000;fill-opacity:1;fill-rule:evenodd;stroke:#000000;stroke-width:0.625;stroke-linejoin:round;stroke-opacity:1"
         d="M 8.7185878,4.0337352 -2.2072895,0.01601326 8.7185884,-4.0017078 c -1.7454984,2.3720609 -1.7354408,5.6174519 -6e-7,8.035443 z"
         transform="matrix(1.1,0,0,1.1,1.1,0)"
         inkscape:connector-curvature="0" />
    </marker>
    <marker
       style="overflow:visible"
       id="DistanceEnd"
       refX="0"
       refY="0"
       orient="auto"
       inkscape:stockid="DistanceEnd"
       inkscape:isstock="true">
      <g
         id="g2301"
         style="fill:#000000;fill-opacity:1;stroke:#000000;stroke-opacity:1">
        <path
           style="fill:#000000;fill-opacity:1;stroke:#000000;stroke-width:1.14999998;stroke-linecap:square;stroke-opacity:1"
           d="M 0,0 H -2"
           id="path2316"
           inkscape:connector-curvature="0" />
        <path
           style="fill:#000000;fill-opacity:1;fill-rule:evenodd;stroke:#000000;stroke-opacity:1"
           d="m 0,0 -13,4 4,-4 -4,-4 z"
           id="path2312"
           inkscape:connector-curvature="0" />
        <path
           style="fill:#000000;fill-opacity:1;stroke:#000000;stroke-width:1;stroke-linecap:square;stroke-opacity:1"
           d="M 0,-4 V 40"
           id="path2314"
           inkscape:connector-curvature="0" />
      </g>
    </marker>
    <marker
       inkscape:stockid="Arrow1Lend"
       orient="auto"
       refY="0"
       refX="0"
       id="Arrow1Lend"
       style="overflow:visible"
       inkscape:isstock="true">
      <path
         id="path4528"
         d="M 0,0 5,-5 -12.5,0 5,5 Z"
         style="fill:#000000;fill-opacity:1;fill-rule:evenodd;stroke:#000000;stroke-width:1.00000003pt;stroke-opacity:1"
         transform="matrix(-0.8,0,0,-0.8,-10,0)"
         inkscape:connector-curvature="0" />
    </marker>
    <marker
       inkscape:stockid="Arrow1Lstart"
       orient="auto"
       refY="0"
       refX="0"
       id="Arrow1Lstart"
       style="overflow:visible"
       inkscape:isstock="true">
      <path
         id="path4525"
         d="M 0,0 5,-5 -12.5,0 5,5 Z"
         style="fill:#000000;fill-opacity:1;fill-rule:evenodd;stroke:#000000;stroke-width:1.00000003pt;stroke-opacity:1"
         transform="matrix(0.8,0,0,0.8,10,0)"
         inkscape:connector-curvature="0" />
    </marker>
  </defs>
  <sodipodi:namedview
     pagecolor="#ffffff"
     bordercolor="#666666"
     borderopacity="1"
     objecttolerance="10"
     gridtolerance="10"
     guidetolerance="10"
     inkscape:pageopacity="0"
     inkscape:pageshadow="2"
     inkscape:window-width="1920"
     inkscape:window-height="1017"
     id="namedview6"
     showgrid="false"
     inkscape:zoom="9.8429264"
     inkscape:cx="6.4477925"
     inkscape:cy="-7.9804525"
     inkscape:window-x="-8"
     inkscape:window-y="-8"
     inkscape:window-maximized="1"
     inkscape:current-layer="svg4"
     inkscape:showpageshadow="false"
     showborder="true"
     inkscape:measure-start="-17,20.875"
     inkscape:measure-end="-18.3125,22.875" />
  <path
     style="line-height:normal;font-family:'Bitstream Vera Sans';-inkscape-font-specification:'Bitstream Vera Sans';text-indent:0;text-align:start;text-transform:none;overflow:visible"
     d="m 16.326719,-54.813156 v 2.0625 3.906251 h -13.0937505 -1 v 1 6 1 h 1 13.0937505 v 3.90625 2.0625 l 1.625,-1.28125 9.90625,-7.90625 0.96875,-0.78125 -0.96875,-0.78125 -9.90625,-7.906251 z m 2,4.156251 7.3125,5.8125 -7.3125,5.8125 v -2.8125 -1 h -1 -13.0937505 v -4 h 13.0937505 1 v -1 z"
     overflow="visible"
     id="path2"
     inkscape:connector-curvature="0" />
  <path
     style="fill:#1a1a1a;stroke:#808080;stroke-width:0.01309051"
     d="m -76.792558,-28.420759 c -0.07076,-0.07541 -0.642587,-0.682204 -1.270715,-1.348428 -0.628132,-0.666225 -1.154963,-1.233094 -1.170736,-1.259709 -0.01793,-0.03029 -0.02867,-0.06665 -0.02867,-0.09716 0,-0.03052 0.01073,-0.06688 0.02867,-0.09716 0.01575,-0.02661 0.535563,-0.58606 1.155091,-1.243219 0.619524,-0.657158 1.191391,-1.263955 1.270821,-1.348435 0.165419,-0.175942 0.194862,-0.188499 0.247501,-0.105568 l 0.0305,0.04802 v 0.666683 0.666685 h 2.377974 2.377974 v -0.666683 -0.666683 l 0.03049,-0.04802 c 0.05546,-0.08736 0.07629,-0.07566 0.314956,0.176924 1.467284,1.55291 2.33503,2.480058 2.358463,2.519907 0.03762,0.06399 0.03762,0.131118 0,0.195124 -0.02264,0.03855 -1.522337,1.639635 -2.411753,2.574835 -0.183232,0.192668 -0.20913,0.204739 -0.261666,0.121977 l -0.03049,-0.04803 v -0.699543 -0.699543 h -2.377974 -2.377974 v 0.699543 0.699543 l -0.0305,0.04803 c -0.05169,0.08142 -0.08339,0.06924 -0.231962,-0.08909 z"
     id="path4541"
     inkscape:connector-curvature="0"
     inkscape:export-xdpi="150.09"
     inkscape:export-ydpi="150.09" />
  <path
     inkscape:export-ydpi="151.60117"
     inkscape:export-xdpi="151.60117"
     inkscape:connector-curvature="0"
     id="path4547"
     d="m -20.061125,-21.742614 c 0.07541,-0.05882 0.682204,-0.534152 1.348428,-1.056284 0.666225,-0.522136 1.233094,-0.960066 1.259709,-0.973177 0.03029,-0.0149 0.06665,-0.02383 0.09716,-0.02383 0.03052,0 0.06688,0.0089 0.09716,0.02383 0.02661,0.01309 0.58606,0.445188 1.243219,0.960172 0.657158,0.51498 1.263955,0.990346 1.348435,1.056372 0.175942,0.137505 0.188499,0.161979 0.105568,0.205736 l -0.04802,0.02535 h -0.666683 -0.666685 v 1.976695 1.976696 h 0.666683 0.666683 l 0.04802,0.02534 c 0.08736,0.0461 0.07566,0.06342 -0.176924,0.261807 -1.55291,1.219683 -2.480058,1.940999 -2.519907,1.960477 -0.06399,0.03127 -0.131118,0.03127 -0.195124,0 -0.03855,-0.01882 -1.639635,-1.265445 -2.574835,-2.004774 -0.192668,-0.152312 -0.204739,-0.17384 -0.121977,-0.21751 l 0.04803,-0.02534 h 0.699543 0.699543 v -1.976696 -1.976695 h -0.699543 -0.699543 l -0.04803,-0.02535 c -0.08142,-0.04297 -0.06924,-0.06932 0.08909,-0.192819 z"
     style="fill:#1a1a1a;stroke:#808080;stroke-width:0.01193501" />
  <path
     inkscape:connector-curvature="0"
     id="path4523"
     d="m -67.42355,-10.928967 -6.985058,0.149264"
     style="fill:none;stroke:#000000;stroke-width:0.1331258;stroke-linecap:butt;stroke-linejoin:miter;stroke-miterlimit:4;stroke-dasharray:none;stroke-opacity:1;marker-start:url(#Arrow2Lstart);marker-mid:url(#DistanceEnd);marker-end:url(#Arrow2Lend)"
     sodipodi:nodetypes="cc" />
  <g
     id="g7199"
     transform="translate(-38.3125,-9.3125)">
    <path
       style="fill:#1a1a1a;fill-opacity:1;stroke:#1a1a1a;stroke-width:1.03199995;stroke-linecap:butt;stroke-linejoin:miter;stroke-miterlimit:4;stroke-dasharray:none;stroke-opacity:1"
       d="M 1.2727655,1.6019473 V 10.398053"
       id="path7150"
       inkscape:connector-curvature="0" />
    <path
       inkscape:connector-curvature="0"
       id="path7152"
       d="M 10.727233,1.6019473 V 10.398053"
       style="fill:#1a1a1a;fill-opacity:1;stroke:#1a1a1a;stroke-width:1.03199995;stroke-linecap:butt;stroke-linejoin:miter;stroke-miterlimit:4;stroke-dasharray:none;stroke-opacity:1" />
    <g
       transform="matrix(0.91936798,0,0,1,0.48515451,0)"
       id="g7191">
      <rect
         style="opacity:0.98999999;vector-effect:none;fill:#1a1a1a;fill-opacity:1;stroke:#1a1a1a;stroke-width:0.47930861;stroke-linecap:butt;stroke-linejoin:miter;stroke-miterlimit:4;stroke-dasharray:none;stroke-dashoffset:0;stroke-opacity:1"
         id="rect7144"
         width="5.1219492"
         height="2.250608"
         x="3.4014575"
         y="5.0634594" />
      <path
         transform="matrix(-0.92787169,0,0,-1.7174947,-69.376947,17.541695)"
         inkscape:transform-center-x="-0.17409103"
         d="m -83.76918,7.949367 -1.159779,-0.6695988 -1.159779,-0.6695989 1.159779,-0.6695987 1.159779,-0.6695987 0,1.3391975 z"
         inkscape:randomized="0"
         inkscape:rounded="0"
         inkscape:flatsided="false"
         sodipodi:arg2="2.0943951"
         sodipodi:arg1="1.0471976"
         sodipodi:r2="0.77318609"
         sodipodi:r1="1.5463722"
         sodipodi:cy="6.6101694"
         sodipodi:cx="-84.542366"
         sodipodi:sides="3"
         id="path7148"
         style="opacity:0.98999999;vector-effect:none;fill:#1a1a1a;fill-opacity:1;stroke:#1a1a1a;stroke-width:0.50400001;stroke-linecap:butt;stroke-linejoin:miter;stroke-miterlimit:4;stroke-dasharray:none;stroke-dashoffset:0;stroke-opacity:1"
         sodipodi:type="star" />
      <path
         sodipodi:type="star"
         style="opacity:0.98999999;vector-effect:none;fill:#1a1a1a;fill-opacity:1;stroke:#1a1a1a;stroke-width:0.50400001;stroke-linecap:butt;stroke-linejoin:miter;stroke-miterlimit:4;stroke-dasharray:none;stroke-dashoffset:0;stroke-opacity:1"
         id="path7154"
         sodipodi:sides="3"
         sodipodi:cx="-84.542366"
         sodipodi:cy="6.6101694"
         sodipodi:r1="1.5463722"
         sodipodi:r2="0.77318609"
         sodipodi:arg1="1.0471976"
         sodipodi:arg2="2.0943951"
         inkscape:flatsided="false"
         inkscape:rounded="0"
         inkscape:randomized="0"
         d="m -83.76918,7.949367 -1.159779,-0.6695988 -1.159779,-0.6695989 1.159779,-0.6695987 1.159779,-0.6695987 0,1.3391975 z"
         inkscape:transform-center-x="0.1740906"
         transform="matrix(0.92787169,0,0,1.7174947,81.41074,-5.1641677)" />
    </g>
  </g>
  <rect
     y="1.0174484"
     x="2.1123073"
     height="2.1214013"
     width="8.2128849"
     id="rect7165"
     style="opacity:0.98999999;vector-effect:none;fill:#ffffff;fill-opacity:1;stroke:#1a1a1a;stroke-width:0.674;stroke-linecap:butt;stroke-linejoin:miter;stroke-miterlimit:4;stroke-dasharray:none;stroke-dashoffset:0.774;stroke-opacity:1" />
  <rect
     style="opacity:0.98999999;vector-effect:none;fill:#ffffff;fill-opacity:1;stroke:#1a1a1a;stroke-width:0.674;stroke-linecap:butt;stroke-linejoin:miter;stroke-miterlimit:4;stroke-dasharray:none;stroke-dashoffset:0.774;stroke-opacity:1"
     id="rect7205"
     width="8.2128849"
     height="2.1214013"
     x="2.1123073"
     y="4.9549484" />
  <rect
     y="8.8924484"
     x="2.1123073"
     height="2.1214013"
     width="8.2128849"
     id="rect7207"
     style="opacity:0.98999999;vector-effect:none;fill:#000000;fill-opacity:0;stroke:#7b7272;stroke-width:0.674;stroke-linecap:butt;stroke-linejoin:miter;stroke-miterlimit:4;stroke-dasharray:none;stroke-dashoffset:0.774;stroke-opacity:0.99215686" />
  <rect
     style="opacity:0.98999999;vector-effect:none;fill:#ffffff;fill-opacity:1;stroke:#1a1a1a;stroke-width:0.67400002;stroke-linecap:butt;stroke-linejoin:miter;stroke-miterlimit:4;stroke-dasharray:none;stroke-dashoffset:0.77399999;stroke-opacity:1"
     id="rect877"
     width="8.2128849"
     height="2.1214013"
     x="20.112307"
     y="-12.670052" />
  <rect
     y="-8.7325516"
     x="20.112307"
     height="2.1214013"
     width="8.2128849"
     id="rect879"
     style="opacity:0.98999999;vector-effect:none;fill:#ffffff;fill-opacity:1;stroke:#1a1a1a;stroke-width:0.67400002;stroke-linecap:butt;stroke-linejoin:miter;stroke-miterlimit:4;stroke-dasharray:none;stroke-dashoffset:0.77399999;stroke-opacity:1" />
  <rect
     style="opacity:0.98999999;vector-effect:none;fill:#000000;fill-opacity:0;stroke:#7b7272;stroke-width:0.67400002;stroke-linecap:butt;stroke-linejoin:miter;stroke-miterlimit:4;stroke-dasharray:none;stroke-dashoffset:0.77399999;stroke-opacity:0.99215686"
     id="rect881"
     width="8.2128849"
     height="2.1214013"
     x="20.112307"
     y="-4.7950516" />
  <path
     style="opacity:0.98999999;vector-effect:none;fill:#ff0000;fill-opacity:0;stroke:#ff0000;stroke-width:0.674;stroke-linecap:butt;stroke-linejoin:miter;stroke-miterlimit:4;stroke-dasharray:none;stroke-dashoffset:0.77399999;stroke-opacity:0.99215686"
     id="path922"
     sodipodi:type="arc"
     sodipodi:cx="-21.375"
     sodipodi:cy="6.25"
     sodipodi:rx="1.5"
     sodipodi:ry="1.5"
     sodipodi:start="2.3188794"
     sodipodi:end="2.312585"
     d="m -22.395352,7.3494913 a 1.5,1.5 0 0 1 -0.08074,-2.1181122 1.5,1.5 0 0 1 2.117983,-0.084076 1.5,1.5 0 0 1 0.08741,2.1178476 1.5,1.5 0 0 1 -2.117708,0.090741 L -21.375,6.25 Z" />
  <path
     style="opacity:0.98999999;vector-effect:none;fill:#ff0000;fill-opacity:1;stroke:#ff0000;stroke-width:0.27748215;stroke-linecap:butt;stroke-linejoin:miter;stroke-miterlimit:4;stroke-dasharray:none;stroke-dashoffset:0.77399999;stroke-opacity:1"
     id="path926"
     sodipodi:type="arc"
     sodipodi:cx="8.7819691"
     sodipodi:cy="3.5624905"
     sodipodi:rx="2.0490997"
     sodipodi:ry="2.0489821"
     sodipodi:start="2.3188794"
     sodipodi:end="2.3125787"
     d="M 7.3880999,5.0643824 A 2.0490997,2.0489821 0 0 1 7.2777972,2.1710687 2.0490997,2.0489821 0 0 1 10.1711,2.056215 2.0490997,2.0489821 0 0 1 10.290517,4.9491669 2.0490997,2.0489821 0 0 1 7.397591,5.0731344 L 8.7819691,3.5624905 Z" />
  <path
     style="opacity:0.98999999;vector-effect:none;fill:#00ffff;fill-opacity:0;stroke:#ff0000;stroke-width:0.67400002;stroke-linecap:butt;stroke-linejoin:miter;stroke-miterlimit:4;stroke-dasharray:none;stroke-dashoffset:0.77399999;stroke-opacity:1"
     id="path928"
     sodipodi:type="arc"
     sodipodi:cx="-23.823883"
     sodipodi:cy="-9.4490261"
     sodipodi:rx="3.7613835"
     sodipodi:ry="1.7384737"
     sodipodi:start="2.3188794"
     sodipodi:end="2.2823251"
     d="m -26.382507,-8.174735 a 3.7613835,1.7384737 0 0 1 -0.221715,-2.445167 3.7613835,1.7384737 0 0 1 5.288147,-0.124815 3.7613835,1.7384737 0 0 1 0.318366,2.4428857 3.7613835,1.7384737 0 0 1 -5.282329,0.1694634"
     sodipodi:open="true" />
</svg>
