<?xml version="1.0" encoding="UTF-8" standalone="no"?>
<svg
   viewBox="0 0 12 12"
   version="1.1"
   id="svg4"
   sodipodi:docname="EditorsSideToolbarIcons.svg"
   inkscape:version="1.1 (c68e22c387, 2021-05-23)"
   width="12"
   height="12"
   inkscape:export-filename="D:\JeromeDocs\JJazzLab\src\JJazzLab\graphics\ShowBarAnnotations-OFF.png"
   inkscape:export-xdpi="128"
   inkscape:export-ydpi="128"
   shape-rendering="crispEdges"
   xmlns:inkscape="http://www.inkscape.org/namespaces/inkscape"
   xmlns:sodipodi="http://sodipodi.sourceforge.net/DTD/sodipodi-0.dtd"
   xmlns="http://www.w3.org/2000/svg"
   xmlns:svg="http://www.w3.org/2000/svg"
   xmlns:rdf="http://www.w3.org/1999/02/22-rdf-syntax-ns#"
   xmlns:cc="http://creativecommons.org/ns#"
   xmlns:dc="http://purl.org/dc/elements/1.1/">
  <metadata
     id="metadata10">
    <rdf:RDF>
      <cc:Work
         rdf:about="">
        <dc:format>image/svg+xml</dc:format>
        <dc:type
           rdf:resource="http://purl.org/dc/dcmitype/StillImage" />
      </cc:Work>
    </rdf:RDF>
  </metadata>
  <defs
     id="defs8">
    <marker
       inkscape:stockid="Arrow2Lend"
       orient="auto"
       refY="0"
       refX="0"
       id="Arrow2Lend"
       style="overflow:visible"
       inkscape:isstock="true">
      <path
         id="path4546"
         style="fill:#000000;fill-opacity:1;fill-rule:evenodd;stroke:#000000;stroke-width:0.625;stroke-linejoin:round;stroke-opacity:1"
         d="M 8.7185878,4.0337352 -2.2072895,0.01601326 8.7185884,-4.0017078 c -1.7454984,2.3720609 -1.7354408,5.6174519 -6e-7,8.035443 z"
         transform="matrix(-1.1,0,0,-1.1,-1.1,0)"
         inkscape:connector-curvature="0" />
    </marker>
    <marker
       inkscape:stockid="Arrow2Lstart"
       orient="auto"
       refY="0"
       refX="0"
       id="Arrow2Lstart"
       style="overflow:visible"
       inkscape:isstock="true">
      <path
         id="path4543"
         style="fill:#000000;fill-opacity:1;fill-rule:evenodd;stroke:#000000;stroke-width:0.625;stroke-linejoin:round;stroke-opacity:1"
         d="M 8.7185878,4.0337352 -2.2072895,0.01601326 8.7185884,-4.0017078 c -1.7454984,2.3720609 -1.7354408,5.6174519 -6e-7,8.035443 z"
         transform="matrix(1.1,0,0,1.1,1.1,0)"
         inkscape:connector-curvature="0" />
    </marker>
    <marker
       style="overflow:visible"
       id="DistanceEnd"
       refX="0"
       refY="0"
       orient="auto"
       inkscape:stockid="DistanceEnd"
       inkscape:isstock="true">
      <g
         id="g2301"
         style="fill:#000000;fill-opacity:1;stroke:#000000;stroke-opacity:1">
        <path
           style="fill:#000000;fill-opacity:1;stroke:#000000;stroke-width:1.14999998;stroke-linecap:square;stroke-opacity:1"
           d="M 0,0 H -2"
           id="path2316"
           inkscape:connector-curvature="0" />
        <path
           style="fill:#000000;fill-opacity:1;fill-rule:evenodd;stroke:#000000;stroke-opacity:1"
           d="m 0,0 -13,4 4,-4 -4,-4 z"
           id="path2312"
           inkscape:connector-curvature="0" />
        <path
           style="fill:#000000;fill-opacity:1;stroke:#000000;stroke-width:1;stroke-linecap:square;stroke-opacity:1"
           d="M 0,-4 V 40"
           id="path2314"
           inkscape:connector-curvature="0" />
      </g>
    </marker>
    <marker
       inkscape:stockid="Arrow1Lend"
       orient="auto"
       refY="0"
       refX="0"
       id="Arrow1Lend"
       style="overflow:visible"
       inkscape:isstock="true">
      <path
         id="path4528"
         d="M 0,0 5,-5 -12.5,0 5,5 Z"
         style="fill:#000000;fill-opacity:1;fill-rule:evenodd;stroke:#000000;stroke-width:1.00000003pt;stroke-opacity:1"
         transform="matrix(-0.8,0,0,-0.8,-10,0)"
         inkscape:connector-curvature="0" />
    </marker>
    <marker
       inkscape:stockid="Arrow1Lstart"
       orient="auto"
       refY="0"
       refX="0"
       id="Arrow1Lstart"
       style="overflow:visible"
       inkscape:isstock="true">
      <path
         id="path4525"
         d="M 0,0 5,-5 -12.5,0 5,5 Z"
         style="fill:#000000;fill-opacity:1;fill-rule:evenodd;stroke:#000000;stroke-width:1.00000003pt;stroke-opacity:1"
         transform="matrix(0.8,0,0,0.8,10,0)"
         inkscape:connector-curvature="0" />
    </marker>
  </defs>
  <sodipodi:namedview
     pagecolor="#ffffff"
     bordercolor="#666666"
     borderopacity="1"
     objecttolerance="10"
     gridtolerance="10"
     guidetolerance="10"
     inkscape:pageopacity="0"
     inkscape:pageshadow="2"
     inkscape:window-width="1920"
     inkscape:window-height="1009"
     id="namedview6"
     showgrid="false"
     inkscape:zoom="32"
     inkscape:cx="0.84375"
     inkscape:cy="4.046875"
     inkscape:window-x="-8"
     inkscape:window-y="-8"
     inkscape:window-maximized="1"
     inkscape:current-layer="svg4"
     inkscape:showpageshadow="false"
     showborder="true"
     inkscape:measure-start="-17,20.875"
     inkscape:measure-end="-18.3125,22.875"
     inkscape:pagecheckerboard="0" />
  <path
     style="fill:#1a1a1a;stroke:#808080;stroke-width:0.01309051"
     d="m -76.792558,-28.420759 c -0.07076,-0.07541 -0.642587,-0.682204 -1.270715,-1.348428 -0.628132,-0.666225 -1.154963,-1.233094 -1.170736,-1.259709 -0.01793,-0.03029 -0.02867,-0.06665 -0.02867,-0.09716 0,-0.03052 0.01073,-0.06688 0.02867,-0.09716 0.01575,-0.02661 0.535563,-0.58606 1.155091,-1.243219 0.619524,-0.657158 1.191391,-1.263955 1.270821,-1.348435 0.165419,-0.175942 0.194862,-0.188499 0.247501,-0.105568 l 0.0305,0.04802 v 0.666683 0.666685 h 2.377974 2.377974 v -0.666683 -0.666683 l 0.03049,-0.04802 c 0.05546,-0.08736 0.07629,-0.07566 0.314956,0.176924 1.467284,1.55291 2.33503,2.480058 2.358463,2.519907 0.03762,0.06399 0.03762,0.131118 0,0.195124 -0.02264,0.03855 -1.522337,1.639635 -2.411753,2.574835 -0.183232,0.192668 -0.20913,0.204739 -0.261666,0.121977 l -0.03049,-0.04803 v -0.699543 -0.699543 h -2.377974 -2.377974 v 0.699543 0.699543 l -0.0305,0.04803 c -0.05169,0.08142 -0.08339,0.06924 -0.231962,-0.08909 z"
     id="path4541"
     inkscape:connector-curvature="0"
     inkscape:export-xdpi="150.09"
     inkscape:export-ydpi="150.09" />
  <path
     inkscape:connector-curvature="0"
     id="path4523"
     d="m -67.42355,-10.928967 -6.985058,0.149264"
     style="fill:none;stroke:#000000;stroke-width:0.1331258;stroke-linecap:butt;stroke-linejoin:miter;stroke-miterlimit:4;stroke-dasharray:none;stroke-opacity:1;marker-start:url(#Arrow2Lstart);marker-mid:url(#DistanceEnd);marker-end:url(#Arrow2Lend)"
     sodipodi:nodetypes="cc" />
  <g
     id="g7199"
     style="fill:#818181;fill-opacity:1;stroke:#818181;stroke-opacity:1"
     transform="translate(-11.37873,-19.404798)">
    <path
       style="fill:#818181;fill-opacity:1;stroke:#818181;stroke-width:1.03199995;stroke-linecap:butt;stroke-linejoin:miter;stroke-miterlimit:4;stroke-dasharray:none;stroke-opacity:1"
       d="M 1.2727655,1.6019473 V 10.398053"
       id="path7150"
       inkscape:connector-curvature="0" />
    <path
       inkscape:connector-curvature="0"
       id="path7152"
       d="M 10.727233,1.6019473 V 10.398053"
       style="fill:#818181;fill-opacity:1;stroke:#818181;stroke-width:1.03199995;stroke-linecap:butt;stroke-linejoin:miter;stroke-miterlimit:4;stroke-dasharray:none;stroke-opacity:1" />
    <g
       transform="matrix(0.91936798,0,0,1,0.48515451,0)"
       id="g7191"
       style="fill:#818181;fill-opacity:1;stroke:#818181;stroke-opacity:1">
      <rect
         style="opacity:0.98999999;vector-effect:none;fill:#818181;fill-opacity:1;stroke:#818181;stroke-width:0.47930861;stroke-linecap:butt;stroke-linejoin:miter;stroke-miterlimit:4;stroke-dasharray:none;stroke-dashoffset:0;stroke-opacity:1"
         id="rect7144"
         width="5.1219492"
         height="2.250608"
         x="3.4014575"
         y="5.0634594" />
      <path
         transform="matrix(-0.92787169,0,0,-1.7174947,-69.376947,17.541695)"
         inkscape:transform-center-x="-0.17409103"
         d="m -83.76918,7.949367 -1.159779,-0.6695988 -1.159779,-0.6695989 1.159779,-0.6695987 1.159779,-0.6695987 0,1.3391975 z"
         inkscape:randomized="0"
         inkscape:rounded="0"
         inkscape:flatsided="false"
         sodipodi:arg2="2.0943951"
         sodipodi:arg1="1.0471976"
         sodipodi:r2="0.77318609"
         sodipodi:r1="1.5463722"
         sodipodi:cy="6.6101694"
         sodipodi:cx="-84.542366"
         sodipodi:sides="3"
         id="path7148"
         style="opacity:0.98999999;vector-effect:none;fill:#818181;fill-opacity:1;stroke:#818181;stroke-width:0.50400001;stroke-linecap:butt;stroke-linejoin:miter;stroke-miterlimit:4;stroke-dasharray:none;stroke-dashoffset:0;stroke-opacity:1"
         sodipodi:type="star" />
      <path
         sodipodi:type="star"
         style="opacity:0.98999999;vector-effect:none;fill:#818181;fill-opacity:1;stroke:#818181;stroke-width:0.50400001;stroke-linecap:butt;stroke-linejoin:miter;stroke-miterlimit:4;stroke-dasharray:none;stroke-dashoffset:0;stroke-opacity:1"
         id="path7154"
         sodipodi:sides="3"
         sodipodi:cx="-84.542366"
         sodipodi:cy="6.6101694"
         sodipodi:r1="1.5463722"
         sodipodi:r2="0.77318609"
         sodipodi:arg1="1.0471976"
         sodipodi:arg2="2.0943951"
         inkscape:flatsided="false"
         inkscape:rounded="0"
         inkscape:randomized="0"
         d="m -83.76918,7.949367 -1.159779,-0.6695988 -1.159779,-0.6695989 1.159779,-0.6695987 1.159779,-0.6695987 0,1.3391975 z"
         inkscape:transform-center-x="0.1740906"
         transform="matrix(0.92787169,0,0,1.7174947,81.41074,-5.1641677)" />
    </g>
  </g>
  <rect
     style="opacity:0.99;vector-effect:none;fill:#808080;fill-opacity:1;stroke:#818181;stroke-width:0.674;stroke-linecap:butt;stroke-linejoin:miter;stroke-miterlimit:4;stroke-dasharray:none;stroke-dashoffset:0.774;stroke-opacity:1"
     id="rect877"
     width="8.2128849"
     height="2.1214013"
     x="54.479763"
     y="10.771914" />
  <g
     id="g3"
     style="fill:#808080"
     inkscape:export-filename="D:\JeromeDocs\JJazzLab\src\JJazzLab-X\Graphics\CompactViewSettings.png"
     inkscape:export-xdpi="128"
     inkscape:export-ydpi="128"
     transform="matrix(0.01519117,0,0,0.01519117,13.145624,-20.479387)">
    <g
       id="settings"
       style="fill:#808080">
      <path
         d="m 440.813,280.5 c 0,-7.65 2.55,-15.3 2.55,-25.5 0,-10.2 0,-17.85 -2.55,-25.5 l 53.55,-43.35 c 5.1,-5.1 5.1,-10.2 2.55,-15.3 l -51,-89.25 c -2.55,-2.55 -7.649,-5.1 -15.3,-2.55 l -63.75,25.5 c -12.75,-10.2 -28.05,-17.85 -43.35,-25.5 l -10.2,-66.3 C 315.863,5.1 308.212,0 303.113,0 h -102 c -5.101,0 -12.75,5.1 -12.75,10.2 l -10.2,68.85 c -15.3,5.1 -28.05,15.3 -43.35,25.5 l -61.2,-25.5 c -7.65,-2.55 -12.75,0 -17.851,5.1 l -51,89.25 c -2.55,2.55 0,10.2 5.1,15.3 l 53.55,40.8 c 0,7.65 -2.55,15.3 -2.55,25.5 0,10.2 0,17.85 2.55,25.5 l -53.55,43.35 c -5.1,5.101 -5.1,10.2 -2.55,15.301 l 51,89.25 c 2.55,2.55 7.649,5.1 15.3,2.55 l 63.75,-25.5 c 12.75,10.2 28.05,17.85 43.35,25.5 l 10.2,66.3 c 0,5.1 5.1,10.2 12.75,10.2 h 102 c 5.101,0 12.75,-5.101 12.75,-10.2 l 10.2,-66.3 c 15.3,-7.65 30.6,-15.3 43.35,-25.5 l 63.75,25.5 c 5.101,2.55 12.75,0 15.301,-5.101 l 51,-89.25 c 2.55,-5.1 2.55,-12.75 -2.551,-15.3 z m -188.7,63.75 c -48.45,0 -89.25,-40.8 -89.25,-89.25 0,-48.45 40.8,-89.25 89.25,-89.25 48.45,0 89.25,40.8 89.25,89.25 0,48.45 -40.8,89.25 -89.25,89.25 z"
         id="path6"
         style="fill:#808080" />
    </g>
  </g>
  <g
     id="g4117"
     transform="translate(-21.875,6.75)">
    <path
       inkscape:export-ydpi="151.60117"
       inkscape:export-xdpi="151.60117"
       inkscape:connector-curvature="0"
       id="path4547"
       d="M 2.9493411,8.213374 C 3.0343778,8.163568 3.718636,7.7610772 4.4699111,7.3189582 5.2211869,6.8768359 5.8604231,6.5060151 5.8904357,6.4949133 c 0.034156,-0.012614 0.075161,-0.020178 0.1095645,-0.020178 0.034416,0 0.075418,0.00753 0.1095645,0.020178 0.030008,0.011087 0.660877,0.3769661 1.4019299,0.8130328 0.7410499,0.4360631 1.4253113,0.8385828 1.5205763,0.8944906 0.1984027,0.1164333 0.2125633,0.1371574 0.1190447,0.1742087 l -0.05415,0.021466 H 8.3451732 7.1784305 l -0.00603,2.1635006 H 4.7131035 V 8.3981108 H 3.6918867 2.9030391 l -0.054159,-0.021466 c -0.091816,-0.03639 -0.078079,-0.058698 0.1004636,-0.1632713 z"
       style="fill:#ff0000;fill-opacity:1;stroke:#ff0000;stroke-width:0.0116625;stroke-opacity:1"
       sodipodi:nodetypes="sscscsscccccccccsss" />
    <rect
       style="opacity:0.99;vector-effect:none;fill:#ff0000;fill-opacity:1;stroke:#ff0000;stroke-width:0.535238;stroke-linecap:butt;stroke-linejoin:miter;stroke-miterlimit:4;stroke-dasharray:none;stroke-dashoffset:0.774;stroke-opacity:1"
       id="rect13343"
       width="9.2745552"
       height="1.1846743"
       x="1.3627224"
       y="1.2387502" />
    <rect
       style="opacity:0.99;vector-effect:none;fill:#ff0000;fill-opacity:1;stroke:#ff0000;stroke-width:0.535238;stroke-linecap:butt;stroke-linejoin:miter;stroke-miterlimit:4;stroke-dasharray:none;stroke-dashoffset:0.774;stroke-opacity:1"
       id="rect13435"
       width="9.2745552"
       height="1.1846743"
       x="1.3627224"
       y="4.0276017" />
  </g>
  <g
     id="g13455"
     transform="matrix(1.0644259,0,0,1.0644259,23.634047,-3.6487328)">
    <rect
       style="opacity:0.99;vector-effect:none;fill:#808080;fill-opacity:1;stroke:#818181;stroke-width:0.473367;stroke-linecap:butt;stroke-linejoin:miter;stroke-miterlimit:4;stroke-dasharray:none;stroke-dashoffset:0.774;stroke-opacity:1"
       id="rect13447"
       width="8.2024641"
       height="1.047732"
       x="0.2366835"
       y="1.3181248" />
    <rect
       style="opacity:0.99;vector-effect:none;fill:#808080;fill-opacity:1;stroke:#818181;stroke-width:0.473367;stroke-linecap:butt;stroke-linejoin:miter;stroke-miterlimit:4;stroke-dasharray:none;stroke-dashoffset:0.774;stroke-opacity:1"
       id="rect13449"
       width="8.2024641"
       height="1.047732"
       x="0.2366835"
       y="3.7845998" />
    <rect
       style="opacity:0.99;vector-effect:none;fill:#808080;fill-opacity:1;stroke:#818181;stroke-width:0.473367;stroke-linecap:butt;stroke-linejoin:miter;stroke-miterlimit:4;stroke-dasharray:none;stroke-dashoffset:0.774;stroke-opacity:1"
       id="rect13451"
       width="8.2024641"
       height="1.047732"
       x="0.2366835"
       y="6.2510753" />
    <rect
       style="opacity:0.99;vector-effect:none;fill:#808080;fill-opacity:1;stroke:#818181;stroke-width:0.473367;stroke-linecap:butt;stroke-linejoin:miter;stroke-miterlimit:4;stroke-dasharray:none;stroke-dashoffset:0.774;stroke-opacity:1"
       id="rect13453"
       width="8.2024641"
       height="1.047732"
       x="0.2366835"
       y="8.7175503" />
  </g>
  <path
     inkscape:export-ydpi="151.60117"
     inkscape:export-xdpi="151.60117"
     inkscape:connector-curvature="0"
     id="path894"
     d="m -25.996841,30.038861 c 0.08005,-0.04689 0.724202,-0.425785 1.43144,-0.841989 0.707239,-0.416207 1.309006,-0.765291 1.337259,-0.775742 0.03215,-0.01187 0.07075,-0.019 0.103142,-0.019 0.0324,0 0.071,0.0071 0.103142,0.019 0.02825,0.01044 0.622139,0.35487 1.319754,0.765376 0.697613,0.410502 1.341765,0.789428 1.431446,0.842059 0.186773,0.109608 0.200104,0.129117 0.112067,0.163997 l -0.05098,0.02021 h -0.707725 -1.098353 l -0.0057,2.036684 h -2.315138 v -2.036685 h -0.961357 -0.742609 l -0.05099,-0.02021 c -0.08643,-0.03426 -0.0735,-0.05526 0.09457,-0.153701 z"
     style="fill:#808080;fill-opacity:0.992157;stroke:#808080;stroke-width:0.0109789;stroke-opacity:0.992157"
     sodipodi:nodetypes="sscscsscccccccccsss" />
  <rect
     style="opacity:0.99;vector-effect:none;fill:#808080;fill-opacity:1;stroke:#818181;stroke-width:0.503864;stroke-linecap:butt;stroke-linejoin:miter;stroke-miterlimit:4;stroke-dasharray:none;stroke-dashoffset:0.774;stroke-opacity:1"
     id="rect896"
     width="8.7309151"
     height="1.1152331"
     x="-27.490458"
     y="23.473063" />
  <rect
     style="opacity:0.99;vector-effect:none;fill:#808080;fill-opacity:1;stroke:#818181;stroke-width:0.503864;stroke-linecap:butt;stroke-linejoin:miter;stroke-miterlimit:4;stroke-dasharray:none;stroke-dashoffset:0.774;stroke-opacity:1"
     id="rect898"
     width="8.7309151"
     height="1.1152331"
     x="-27.490458"
     y="26.098442" />
  <g
     id="g4127"
     transform="matrix(1.1485017,0,0,1.1485017,28.517897,16.010344)"
     style="fill:#ff0000;fill-opacity:0.992157;stroke:#ff0000;stroke-opacity:0.992157">
    <rect
       style="opacity:0.99;vector-effect:none;fill:#ff0000;fill-opacity:0.992157;stroke:#ff0000;stroke-width:0.473367;stroke-linecap:butt;stroke-linejoin:miter;stroke-miterlimit:4;stroke-dasharray:none;stroke-dashoffset:0.774;stroke-opacity:0.992157"
       id="rect4119"
       width="8.2024641"
       height="1.047732"
       x="0.2366835"
       y="1.3181248" />
    <rect
       style="opacity:0.99;vector-effect:none;fill:#ff0000;fill-opacity:0.992157;stroke:#ff0000;stroke-width:0.473367;stroke-linecap:butt;stroke-linejoin:miter;stroke-miterlimit:4;stroke-dasharray:none;stroke-dashoffset:0.774;stroke-opacity:0.992157"
       id="rect4121"
       width="8.2024641"
       height="1.047732"
       x="0.2366835"
       y="3.7845998" />
    <rect
       style="opacity:0.99;vector-effect:none;fill:#ff0000;fill-opacity:0.992157;stroke:#ff0000;stroke-width:0.473367;stroke-linecap:butt;stroke-linejoin:miter;stroke-miterlimit:4;stroke-dasharray:none;stroke-dashoffset:0.774;stroke-opacity:0.992157"
       id="rect4123"
       width="8.2024641"
       height="1.047732"
       x="0.2366835"
       y="6.2510753" />
    <rect
       style="opacity:0.99;vector-effect:none;fill:#ff0000;fill-opacity:0.992157;stroke:#ff0000;stroke-width:0.473367;stroke-linecap:butt;stroke-linejoin:miter;stroke-miterlimit:4;stroke-dasharray:none;stroke-dashoffset:0.774;stroke-opacity:0.992157"
       id="rect4125"
       width="8.2024641"
       height="1.047732"
       x="0.2366835"
       y="8.7175503" />
  </g>
  <rect
     style="opacity:0.99;vector-effect:none;fill:#808080;fill-opacity:1;stroke:#818181;stroke-width:0.503864;stroke-linecap:butt;stroke-linejoin:miter;stroke-miterlimit:4;stroke-dasharray:none;stroke-dashoffset:0.774;stroke-opacity:1"
     id="rect19954"
     width="8.7309151"
     height="1.1152331"
     x="1.6345423"
     y="1.7543133" />
  <rect
     style="opacity:0.99;vector-effect:none;fill:#808080;fill-opacity:1;stroke:#818181;stroke-width:0.503864;stroke-linecap:butt;stroke-linejoin:miter;stroke-miterlimit:4;stroke-dasharray:none;stroke-dashoffset:0.774;stroke-opacity:1"
     id="rect19956"
     width="8.7309151"
     height="1.1152331"
     x="1.6345423"
     y="4.535943" />
</svg>
