<svg xmlns="http://www.w3.org/2000/svg" xmlns:v="http://vecta.io" xmlns:xlink="http://www.w3.org/1999/xlink" viewBox="0 0 81 82" stroke="#000" stroke-linecap="round" stroke-linejoin="round" fill="#fff" fill-rule="evenodd" font-family="Roboto" font-size="14px" text-anchor="middle" width="300" height="300">
    <g>
        <title>Laptop Device</title>
        <use xlink:href="#bKBFS3JJo8BiR4p4_y9FJQ.sym" x="0.5" y="0.5"></use>
    </g>
    <defs>
        <style type="text/css"></style>
        <linearGradient id="sym_bKBFS3JJo8BiR4p4_y9FJQ_L00100100000aaff10000387f.grad" x1="0%" y1="0%" x2="100%" y2="100%">
            <stop offset="0%" stop-color="#00aaff"></stop>
            <stop offset="100%" stop-color="#00387f"></stop>
        </linearGradient>
    </defs>
    <symbol id="bKBFS3JJo8BiR4p4_y9FJQ.sym" overflow="visible" v:tags="computer, display, network, laptop device, laptop device">
        <title>Laptop Device</title>
        <desc>A portable computer.</desc>
        <g id="jfhl71yijj" class="Group.cls" transform="translate(0 0)" v:size="81,82,0.5,0.5">
            <g id="jfhl71yijk" transform="translate(3.5901087197878057e-13 53.469584791684085)">
                <path d="M 79.9999566563698 7.64435692443 L 79.9999566563698 8.9933610875648 Q 79.9999566563698 9.8926971963214 79.0587806957065 10.3423652506995 L 47.0587980331587 26.5304152083159 L 0 0.9748444614167 L 1e-13 0 Z" fill="#1565C0" fill-opacity="1" stroke="none"></path>
            </g>
            <g id="jfhl71yjjl" transform="translate(0 35.5409083566966)" class="">
                <path d="M 0 17.9866829940734 L 47.0588166090005 43.6177932488696 L 79.9999566563705 25.6311102547963 L 32.9411400473701 0 Z" fill="#1C3E73" fill-opacity="1" rx="0" stroke="none" stroke-dasharray="none" stroke-linecap="round" stroke-linejoin="round" stroke-opacity="1" stroke-width="1px"></path>
            </g>
            <g id="jfhl71yjjm" transform="translate(32.94120196684133 0)" class="">
                <path d="M 45.4117401019979 24.2411266038686 Q 47.0587980331587 25.1404627126252 47.0587980331587 26.9391349301382 L 47.0587980331587 59.3152708914208 Q 47.0587980331587 61.1139431089335 45.4117401019979 60.2146070001772 L 0.9411759606633 35.9324960177032 Q -2.617e-10 35.2579939361355 0 33.6841557458117 L 3e-13 1.3081309749286 Q 0 -0.490555676399 1.4117639409948 0.1839608389828 L 45.4117401019979 24.2411266038686" fill="#262626" stroke="#1565C0" stroke-opacity="1"></path>
            </g>
            <g id="jfhl71yjjn" transform="translate(35.294141868499395 2.978286526433225)" class="">
                <path d="M 42.3529182298426 54.6025494602189 L 1e-13 31.4767638064771 L 0 0 L 42.3529182298426 23.1257985013969 Z" fill="url(#sym_bKBFS3JJo8BiR4p4_y9FJQ_L00100100000aaff10000387f.grad)" stroke="none" stroke-width="1px"></path>
            </g>
            <g id="jfhl71yjjo" transform="translate(0 35.48284991884368)" class="">
                <path d="M 0 17.9866829940734 L 47.0588166090005 43.6177932488696 L 79.9999566563705 25.6311102547963 L 32.9411400473701 0 Z M 68.0835420600007 22.2823114892561 L 71.3776455384276 24.08102949623 L 73.024697277641 23.1817202003097 L 69.7305937992142 21.3830021933357 Z M 60.7894407487553 27.6783660950448 L 67.377647705609 31.2757026938594 L 70.671751184036 29.4769846868854 L 64.0835442271821 25.8796480880707 Z M 55.8482855311148 24.9803387921504 L 59.1423890095417 26.778957383991 L 62.4364924879687 24.9803387921504 L 59.1423890095417 23.1816207851764 Z M 66.9070163816477 26.3293027360309 L 71.8481715992881 29.0272306237919 L 75.1422750777151 27.2286120319513 L 70.2011198600746 24.5305847290569 Z M 73.024697277641 24.9803387921504 L 76.318800756068 26.7790567991243 L 77.9658524952815 25.879747503204 L 74.6717490168545 24.08102949623 Z M 53.0248133766493 28.1280207430049 L 62.9071238119301 33.5239759336603 L 66.201227290357 31.7253573418196 L 56.3189168550762 26.3293027360309 Z M 48.0835528959081 25.4299934401106 L 51.377656374335 27.2286120319513 L 54.6717598527619 25.4299934401106 L 51.377656374335 23.6312754331365 Z M 51.8482876982964 32.1750119897797 L 58.4364946551501 35.7723485885945 L 61.7305981335771 33.9736305816204 L 55.1423911767232 30.3762939828058 Z M 22.2012511293532 15.9869475875471 L 50.2012359590829 31.2756032787261 L 53.4953394375097 29.4769846868854 L 25.4953546077802 14.188229580573 Z M 43.1423976782677 22.7319661372162 L 46.4365011566946 24.5305847290569 L 49.7306046351215 22.7319661372162 L 46.4365011566946 20.9332481302422 Z M 38.2012424606273 20.0339388343219 L 41.4953459390542 21.8325574261626 L 44.7894494174811 20.0339388343219 L 41.4953459390542 18.2352208273479 Z M 33.2600872429869 17.3359115314275 L 36.5541907214138 19.1345301232682 L 39.8482941998408 17.3359115314275 L 36.5541907214138 15.5371935244536 Z M 28.3189320253466 14.6378842285332 L 31.6130355037734 16.4365028203739 L 34.9071389822004 14.6378842285332 L 31.6130355037734 12.8391662215592 Z M 23.3776715446053 11.9399563407721 L 26.6717750230322 13.7385749326129 L 29.9658785014591 11.9399563407721 L 26.6717750230322 10.1412383337982 Z M 18.4365163269648 9.2419290378778 L 21.7306198053918 11.0405476297185 L 25.0247232838188 9.2419290378778 L 21.7306198053918 7.4432110309039 Z M 50.9071303134745 22.2823114892561 L 54.2012337919014 24.0809300810968 L 57.4953372703283 22.2823114892561 L 54.2012337919014 20.483593482282 Z M 45.9659750958341 19.5842841863617 L 49.2600785742609 21.3829027782024 L 52.5541820526879 19.5842841863617 L 49.2600785742609 17.7855661793877 Z M 41.0247146150928 16.8862568834674 L 44.3188180935197 18.6848754753081 L 47.6129215719467 16.8862568834674 L 44.3188180935197 15.0875388764933 Z M 36.0835593974525 14.188229580573 L 39.3776628758794 15.9868481724137 L 42.6717663543064 14.188229580573 L 39.3776628758794 12.389511573599 Z M 31.1424041798122 11.4902022776787 L 34.436507658239 13.2888208695194 L 37.730611136666 11.4902022776787 L 34.436507658239 9.6914842707047 Z M 22.9071454837448 6.9935563829436 L 29.4953524405986 10.5908929817584 L 32.7894559190255 8.7921749747843 L 26.2012489621718 5.1948383759697 Z M 27.3776693774238 4.7451837280095 L 30.6717728558508 6.5438023198501 L 33.9658763342776 4.7451837280095 L 30.6717728558508 2.9464657210355 Z M 32.318929858165 7.4432110309039 L 35.6130333365919 9.2418296227445 L 38.9071368150189 7.4432110309039 L 35.6130333365919 5.6444930239298 Z M 37.2600850758054 10.1412383337982 L 40.5541885542324 11.9398569256388 L 43.8482920326593 10.1412383337982 L 40.5541885542324 8.3425203268242 Z M 42.2012402934458 12.8392656366926 L 45.4953437718727 14.6378842285332 L 48.7894472502997 12.8392656366926 L 45.4953437718727 11.0405476297185 Z M 47.1423955110861 15.5372929395868 L 50.4364989895131 17.3359115314275 L 53.7306024679401 15.5372929395868 L 50.4364989895131 13.7385749326129 Z M 52.0835507287266 18.2353202424812 L 55.3776542071535 20.0339388343219 L 58.6717576855803 18.2353202424812 L 55.3776542071535 16.4366022355072 Z M 61.9659664271082 23.6312754331365 L 65.2600699055351 25.4298940249772 L 68.5541733839621 23.6312754331365 L 65.2600699055351 21.8325574261626 Z M 57.0247059463669 20.9332481302422 L 60.3188094247939 22.7318667220829 L 63.6129129032209 20.9332481302422 L 60.3188094247939 19.1345301232682 Z M 33.4952450103163 3.396219784129 L 36.7893484887432 5.194937791103 L 38.4364002279566 4.2956284951826 L 35.1422967495297 2.4969104882086 Z M 38.4365054910575 6.0942470870233 L 41.7306089694845 7.8929650939973 L 43.377660708698 6.9936557980769 L 40.083557230271 5.194937791103 Z M 43.377660708698 8.7922743899176 L 46.6717641871247 10.5909923968917 L 48.3188159263383 9.6916831009713 L 45.0247124479114 7.8929650939973 Z M 48.3188159263383 11.490301692812 L 51.6129194047652 13.289019699786 L 53.2599711439787 12.3897104038656 L 49.9658676655517 10.5909923968917 Z M 53.2599711439787 14.188229580573 L 56.5540746224056 15.9869475875471 L 58.201126361619 15.0876382916266 L 54.9070228831922 13.2889202846527 Z M 58.201126361619 16.8862568834674 L 61.4952298400459 18.6849748904414 L 63.1422815792595 17.785665594521 L 59.8481781008325 15.9869475875471 Z M 63.1423868423603 19.5842841863617 L 66.4364903207873 21.3830021933357 L 68.0835420600007 20.4836928974153 L 64.7894385815737 18.6849748904414 Z M 17.2600959117128 9.691583685838 L 23.8483028685666 13.2889202846527 L 20.5541993901398 15.0876382916266 L 13.9659924332859 11.490301692812 Z" fill="#FAFAFA" fill-opacity="1" stroke="none" stroke-linecap="square" stroke-linejoin="miter" stroke-opacity="1" stroke-width="1"></path>
            </g>
        </g>
    </symbol>
</svg>