<?xml version="1.0" encoding="UTF-8" standalone="no"?>
<!-- Created with Inkscape (http://www.inkscape.org/) -->

<svg
   xmlns:dc="http://purl.org/dc/elements/1.1/"
   xmlns:cc="http://creativecommons.org/ns#"
   xmlns:rdf="http://www.w3.org/1999/02/22-rdf-syntax-ns#"
   xmlns:svg="http://www.w3.org/2000/svg"
   xmlns="http://www.w3.org/2000/svg"
   xmlns:sodipodi="http://sodipodi.sourceforge.net/DTD/sodipodi-0.dtd"
   xmlns:inkscape="http://www.inkscape.org/namespaces/inkscape"
   width="200mm"
   height="70mm"
   viewBox="0 0 200 70"
   version="1.1"
   id="svg8"
   inkscape:version="0.92.3 (2405546, 2018-03-11)"
   sodipodi:docname="logo-JJazzLabX.svg"
   inkscape:export-filename="C:\Users\Administrateur.000\Documents\src\JJazzLabX\Graphics\LogoJJazz-white-150x52.png"
   inkscape:export-xdpi="19.049999"
   inkscape:export-ydpi="19.049999">
  <defs
     id="defs2">
    <clipPath
       clipPathUnits="userSpaceOnUse"
       id="clipPath4588">
      <rect
         style="opacity:1;vector-effect:none;fill:none;fill-opacity:1;stroke:#1a1a1a;stroke-width:1.10000002;stroke-linecap:butt;stroke-linejoin:miter;stroke-miterlimit:4;stroke-dasharray:none;stroke-dashoffset:0;stroke-opacity:1"
         id="rect4590"
         width="50.781212"
         height="44.901279"
         x="129.09119"
         y="115.52399" />
    </clipPath>
  </defs>
  <sodipodi:namedview
     id="base"
     pagecolor="#ffffff"
     bordercolor="#666666"
     borderopacity="1.0"
     inkscape:pageopacity="0.0"
     inkscape:pageshadow="2"
     inkscape:zoom="0.7"
     inkscape:cx="36.245338"
     inkscape:cy="278.36972"
     inkscape:document-units="mm"
     inkscape:current-layer="layer1"
     showgrid="false"
     inkscape:window-width="1920"
     inkscape:window-height="1017"
     inkscape:window-x="-8"
     inkscape:window-y="-8"
     inkscape:window-maximized="1"
     inkscape:lockguides="true" />
  <metadata
     id="metadata5">
    <rdf:RDF>
      <cc:Work
         rdf:about="">
        <dc:format>image/svg+xml</dc:format>
        <dc:type
           rdf:resource="http://purl.org/dc/dcmitype/StillImage" />
        <dc:title />
      </cc:Work>
    </rdf:RDF>
  </metadata>
  <g
     inkscape:label="Layer 1"
     inkscape:groupmode="layer"
     id="layer1"
     transform="translate(0,-227)">
    <rect
       style="opacity:1;vector-effect:none;fill:#00364e;fill-opacity:1;stroke:none;stroke-width:1.20414329;stroke-linecap:butt;stroke-linejoin:miter;stroke-miterlimit:4;stroke-dasharray:none;stroke-dashoffset:0;stroke-opacity:1"
       id="rect4598"
       width="104.6994"
       height="61.043159"
       x="44.168346"
       y="128.79337"
       inkscape:export-xdpi="48.52"
       inkscape:export-ydpi="48.52" />
    <path
       style="fill:#ffffff;fill-opacity:1;stroke-width:0.11321526"
       d="m 95.605859,149.43496 c -1.180476,-0.48166 -1.67898,-1.6109 -1.15839,-2.62414 0.415665,-0.80896 1.081379,-1.13004 2.964546,-1.42987 0.463602,-0.074 0.910616,-0.151 0.993349,-0.17159 0.117258,-0.0291 0.150684,-0.98632 0.151103,-4.32542 0,0 -0.128809,-2.58376 0.03075,-4.11323 0.01805,-0.17436 0.244646,-0.47862 0.244646,-0.47862 0.245443,-0.2711 0.379963,-0.3132 1.249057,-0.39065 0.53568,-0.0478 1.77982,-0.12009 2.76473,-0.1605 1.77891,-0.0733 1.79236,-0.0722 2.04644,0.17766 0.14067,0.13825 0.37507,0.53893 0.52094,0.8902 0.38367,0.92402 0.68076,1.29697 1.28076,1.60781 0.63129,0.3271 0.67351,0.46807 0.14002,0.4677 -0.59983,0 -4.76549,0.20908 -5.4748,0.27537 l -0.62832,0.0586 -0.0339,4.33855 c 0,0 0.0781,3.02236 -0.18596,4.2848 -0.0365,0.17381 -0.17925,0.49613 -0.17925,0.49613 -0.411527,0.54957 -0.923164,0.78219 -2.356913,1.07157 -1.365119,0.2755 -1.746094,0.27961 -2.36901,0.0254 z"
       id="path4594"
       inkscape:connector-curvature="0"
       sodipodi:nodetypes="cccccscsccssccccscccc"
       inkscape:export-xdpi="48.52"
       inkscape:export-ydpi="48.52" />
    <flowRoot
       transform="matrix(0.25764929,0,0,0.1075619,-58.35804,109.52793)"
       style="font-style:normal;font-variant:normal;font-weight:normal;font-stretch:normal;font-size:58.54671478px;line-height:1.25;font-family:'Century Gothic';-inkscape-font-specification:'Century Gothic, Normal';font-variant-ligatures:normal;font-variant-caps:normal;font-variant-numeric:normal;font-feature-settings:normal;text-align:start;letter-spacing:0px;word-spacing:0px;writing-mode:lr-tb;text-anchor:start;fill:#ffffff;fill-opacity:1;stroke:none"
       id="flowRoot4622"
       xml:space="preserve"
       inkscape:export-xdpi="48.52"
       inkscape:export-ydpi="48.52"><flowRegion
         id="flowRegion4618"
         style="font-style:normal;font-variant:normal;font-weight:normal;font-stretch:normal;font-size:58.54671478px;font-family:'Century Gothic';-inkscape-font-specification:'Century Gothic, Normal';font-variant-ligatures:normal;font-variant-caps:normal;font-variant-numeric:normal;font-feature-settings:normal;text-align:start;writing-mode:lr-tb;text-anchor:start;fill:#ffffff;fill-opacity:1"><rect
           y="568.95612"
           x="453.5585"
           height="78.791924"
           width="311.12698"
           id="rect4616"
           style="font-style:normal;font-variant:normal;font-weight:normal;font-stretch:normal;font-size:58.54671478px;font-family:'Century Gothic';-inkscape-font-specification:'Century Gothic, Normal';font-variant-ligatures:normal;font-variant-caps:normal;font-variant-numeric:normal;font-feature-settings:normal;text-align:start;writing-mode:lr-tb;text-anchor:start;fill:#ffffff;fill-opacity:1" /></flowRegion><flowPara
         id="flowPara4620">PLATFORM</flowPara></flowRoot>    <flowRoot
       transform="matrix(0.44201627,0,0,0.44201627,-141.07951,-99.054546)"
       style="font-style:normal;font-variant:normal;font-weight:normal;font-stretch:normal;font-size:37.33333206px;line-height:1.25;font-family:'Berlin Sans FB';-inkscape-font-specification:'Berlin Sans FB, Normal';font-variant-ligatures:normal;font-variant-caps:normal;font-variant-numeric:normal;font-feature-settings:normal;text-align:start;letter-spacing:0px;word-spacing:0px;writing-mode:lr-tb;text-anchor:start;fill:#ffffff;fill-opacity:1;stroke:none"
       id="flowRoot4630"
       xml:space="preserve"
       inkscape:export-xdpi="48.52"
       inkscape:export-ydpi="48.52"><flowRegion
         style="font-style:normal;font-variant:normal;font-weight:normal;font-stretch:normal;font-size:37.33333206px;font-family:'Berlin Sans FB';-inkscape-font-specification:'Berlin Sans FB, Normal';font-variant-ligatures:normal;font-variant-caps:normal;font-variant-numeric:normal;font-feature-settings:normal;text-align:start;writing-mode:lr-tb;text-anchor:start;fill:#ffffff"
         id="flowRegion4626"><rect
           style="font-style:normal;font-variant:normal;font-weight:normal;font-stretch:normal;font-size:37.33333206px;font-family:'Berlin Sans FB';-inkscape-font-specification:'Berlin Sans FB, Normal';font-variant-ligatures:normal;font-variant-caps:normal;font-variant-numeric:normal;font-feature-settings:normal;text-align:start;writing-mode:lr-tb;text-anchor:start;fill:#ffffff"
           y="568.95612"
           x="453.5585"
           height="78.791924"
           width="311.12698"
           id="rect4624" /></flowRegion><flowPara
         id="flowPara4628">JJazzLab-X</flowPara></flowRoot>    <path
       inkscape:export-ydpi="6.4899998"
       inkscape:export-xdpi="6.4899998"
       inkscape:export-filename="C:\Users\lelasseux\Documents\Perso\src\JJazzNB\JJazz Base\src\org\jjazz\base\resources\Logo16.png"
       sodipodi:nodetypes="cccccscsccssccccscccc"
       inkscape:connector-curvature="0"
       id="path4614"
       d="m 18.57795,281.32041 c -6.8018,-2.84503 -9.6739004,-9.51499 -6.6743,-15.49974 2.3948,-4.77819 6.2305,-6.67477 17.0809,-8.44563 2.671,-0.43593 5.2466,-0.89209 5.7236,-1.01367 0.6753,-0.17201 0.868,-5.82576 0.8707,-25.54838 0,0 -0.7422,-15.26119 0.1779,-24.29517 0.105,-1.0297 1.4096,-2.82691 1.4096,-2.82691 1.4139,-1.60147 2.1891,-1.85002 7.1967,-2.30754 3.0867,-0.28199 10.255,-0.70871 15.9295,-0.94829 10.2498,-0.43276 10.3273,-0.42588 11.7913,1.05 0.8105,0.81703 2.1612,3.18322 3.00161,5.25811 2.2105,5.45779 3.9222,7.66061 7.3792,9.49668 3.6375,1.93199 3.8808,2.76474 0.8069,2.76241 -3.456,-0.003 -27.45761,1.235 -31.54441,1.62661 l -3.6201,0.34689 -0.1956,25.62606 c 0,0 0.4498,17.85189 -1.0717,25.30848 -0.2096,1.02717 -1.0326,2.93055 -1.0326,2.93055 -2.3711,3.2461 -5.3192,4.62011 -13.5802,6.32931 -7.8654,1.62738 -10.0604,1.65156 -13.6496,0.15037 z"
       style="fill:#00364e;fill-opacity:1;stroke:none;stroke-width:3.80318332;stroke-miterlimit:4;stroke-dasharray:none" />
  </g>
</svg>
