<?xml version="1.0" encoding="UTF-8" standalone="no"?>
<svg
   version="1.0"
   width="32"
   height="16"
   id="svg2"
   inkscape:version="1.1 (c68e22c387, 2021-05-23)"
   sodipodi:docname="notes.svg"
   inkscape:export-filename="C:\Users\Jerome\Documents\JJazzLab\src\JJazzLab-X\Graphics\SwingTransformer-48x24.png"
   inkscape:export-xdpi="144"
   inkscape:export-ydpi="144"
   xmlns:inkscape="http://www.inkscape.org/namespaces/inkscape"
   xmlns:sodipodi="http://sodipodi.sourceforge.net/DTD/sodipodi-0.dtd"
   xmlns="http://www.w3.org/2000/svg"
   xmlns:svg="http://www.w3.org/2000/svg"
   xmlns:rdf="http://www.w3.org/1999/02/22-rdf-syntax-ns#"
   xmlns:cc="http://creativecommons.org/ns#"
   xmlns:dc="http://purl.org/dc/elements/1.1/">
  <metadata
     id="metadata17">
    <rdf:RDF>
      <cc:Work
         rdf:about="">
        <dc:format>image/svg+xml</dc:format>
        <dc:type
           rdf:resource="http://purl.org/dc/dcmitype/StillImage" />
      </cc:Work>
    </rdf:RDF>
  </metadata>
  <sodipodi:namedview
     pagecolor="#ffffff"
     bordercolor="#666666"
     borderopacity="1"
     objecttolerance="10"
     gridtolerance="10"
     guidetolerance="10"
     inkscape:pageopacity="0"
     inkscape:pageshadow="2"
     inkscape:window-width="1920"
     inkscape:window-height="1017"
     id="namedview15"
     showgrid="false"
     fit-margin-top="0"
     fit-margin-left="0"
     fit-margin-right="0"
     fit-margin-bottom="0"
     inkscape:zoom="16"
     inkscape:cx="29.4375"
     inkscape:cy="-5.09375"
     inkscape:window-x="-8"
     inkscape:window-y="-8"
     inkscape:window-maximized="1"
     inkscape:current-layer="svg2"
     showguides="true"
     inkscape:guide-bbox="true"
     inkscape:document-rotation="0"
     inkscape:pagecheckerboard="0"
     width="32px">
    <sodipodi:guide
       position="42.868349,19.889087"
       orientation="0,1"
       id="guide984"
       inkscape:locked="false" />
    <sodipodi:guide
       position="-125.00847,3.0762712"
       orientation="0,1"
       id="guide986"
       inkscape:locked="false" />
  </sodipodi:namedview>
  <defs
     id="defs5">
    <rect
       x="-214"
       y="-532"
       width="714"
       height="322"
       id="rect37224" />
    <rect
       x="45"
       y="-456"
       width="244"
       height="128"
       id="rect2778" />
    <marker
       refX="0"
       refY="0"
       orient="auto"
       style="overflow:visible"
       id="Arrow1Mstart">
      <path
         d="M 0,0 5,-5 -12.5,0 5,5 Z"
         transform="matrix(0.4,0,0,0.4,4,0)"
         style="fill-rule:evenodd;stroke:#000000;stroke-width:1pt;marker-start:none"
         id="path3845"
         inkscape:connector-curvature="0" />
    </marker>
    <marker
       refX="0"
       refY="0"
       orient="auto"
       style="overflow:visible"
       id="Arrow2Lstart">
      <path
         d="M 8.7185878,4.0337352 -2.2072895,0.01601326 8.7185884,-4.0017078 c -1.7454984,2.3720609 -1.7354408,5.6174519 -6e-7,8.035443 z"
         transform="matrix(1.1,0,0,1.1,1.1,0)"
         style="font-size:12px;fill-rule:evenodd;stroke-width:0.625;stroke-linejoin:round"
         id="path3833"
         inkscape:connector-curvature="0" />
    </marker>
    <rect
       x="-79.734802"
       y="-54.806629"
       width="96"
       height="84.154694"
       id="rect868" />
    <rect
       x="-214"
       y="-532"
       width="714"
       height="322"
       id="rect40954" />
    <rect
       x="-214"
       y="-532"
       width="714"
       height="322"
       id="rect40974" />
  </defs>
  <g
     id="g1040"
     transform="translate(-76.875001,-47.625)">
    <path
       id="path10999"
       style="opacity:1;fill:#000000;fill-opacity:1;fill-rule:evenodd;stroke:#000000;stroke-width:0.116897;stroke-miterlimit:4;stroke-dasharray:none;stroke-dashoffset:0;stroke-opacity:1"
       d="m 11.673291,26.301642 c 1.984812,-1.063742 3.042399,-2.98937 2.391834,-4.437959 -0.693933,-1.545164 -3.078479,-1.981235 -5.322644,-0.973381 -2.2441589,1.00786 -3.5023177,3.079877 -2.808384,4.625034 0.6939395,1.545164 3.0784796,1.981235 5.322644,0.973381 0.140259,-0.06299 0.284223,-0.11616 0.41655,-0.187075 z m -0.648619,-1.310506 c -0.140995,0.07267 -0.283755,0.127435 -0.433213,0.194557 -1.9130549,0.859156 -3.7606886,0.899561 -4.1241788,0.09019 C 6.10379,24.466516 7.3614111,23.11235 9.274466,22.253189 c 1.913061,-0.859156 3.760694,-0.899561 4.124179,-0.09019 0.335096,0.74614 -0.710223,1.97065 -2.373973,2.828139 z"
       inkscape:connector-curvature="0" />
    <path
       id="path11001"
       style="fill:#000000;fill-opacity:1;fill-rule:evenodd;stroke:#000000;stroke-width:0.876725;stroke-linecap:butt;stroke-linejoin:miter;stroke-miterlimit:4;stroke-dasharray:none;stroke-opacity:1"
       d="M 13.840623,22.599881 V 2.9685056"
       inkscape:connector-curvature="0" />
  </g>
  <g
     id="g982"
     transform="matrix(0.89943609,0,0,0.89943609,31.22711,20.11156)">
    <path
       style="fill:currentColor;stroke-width:0.026567"
       inkscape:connector-curvature="0"
       id="path86"
       d="m -69.257607,-32.449611 c 0,4.728931 5.393107,7.757573 5.393107,12.486504 0,0.876712 -0.239103,1.726857 -0.611042,2.523868 0.478207,0.98298 0.770444,1.992527 0.770444,3.108342 0,1.673723 -0.425072,3.320879 -1.115815,4.8617669 -0.132835,0.2125363 -0.318804,0.3188044 -0.504774,0.3188044 -0.345371,0 -0.690742,-0.2922373 -0.611041,-0.7173098 0.690743,-1.3814855 1.115815,-2.9223735 1.115815,-4.4632615 0,-2.577001 -2.523868,-5.074302 -4.436694,-6.827726 v 1.992527 h -0.425072 v -13.283515 z m 4.064756,13.735155 c 0.132835,-0.398506 0.185969,-0.823578 0.185969,-1.248651 0,-2.550435 -2.4176,-5.047736 -4.250725,-6.827727 0,3.13491 2.4176,5.472809 4.064756,8.076378 z" />
    <rect
       style="fill:currentColor;stroke-width:6.64176"
       id="rect88"
       ry="0.26567033"
       height="21.998833"
       width="0.86342859"
       y="-32.715282"
       x="-70.121033" />
    <a
       transform="matrix(6.6417585,0,0,6.6417585,-669.43148,-68.217473)"
       id="a94">
      <path
         style="fill:currentColor"
         inkscape:connector-curvature="0"
         id="path96"
         d="m 220,138 c 56,0 109,-29 109,-91 0,-72 -56,-121 -103,-149 -36,-21 -76,-36 -117,-36 -56,0 -109,29 -109,91 0,72 56,121 103,149 36,21 76,36 117,36 z"
         transform="matrix(0.004,0,0,-0.004,89.0475,8.8453)" />
    </a>
  </g>
  <g
     id="g1005"
     transform="translate(8.084119,-36.800198)">
    <g
       transform="matrix(5.9353133,0,0,5.9353133,1.6130094,2.975057)"
       id="g942">
      <path
         transform="matrix(0.004,0,0,-0.004,1.3162,0.03999969)"
         d="m 0,0 c 0,-198 209,-335 209,-533 0,-71 -16,-141 -42,-207 -5,-8 -12,-12 -19,-12 -13,0 -26,11 -23,27 26,61 42,126 42,192 0,104 -95,208 -167,283 H -16 V 0 Z"
         id="path68"
         inkscape:connector-curvature="0"
         style="fill:currentColor" />
      <rect
         transform="translate(1.2512,1.9999997)"
         x="-0.064999998"
         y="-2"
         width="0.13"
         height="3.3122001"
         ry="0.039999999"
         id="rect70"
         style="fill:currentColor" />
      <a
         id="a72"
         transform="translate(-94.8335,-6.3453003)">
        <path
           transform="matrix(0.004,0,0,-0.004,94.8335,9.8453)"
           d="m 220,138 c 56,0 109,-29 109,-91 0,-72 -56,-121 -103,-149 -36,-21 -76,-36 -117,-36 -56,0 -109,29 -109,91 0,72 56,121 103,149 36,21 76,36 117,36 z"
           id="path74"
           inkscape:connector-curvature="0"
           style="fill:currentColor" />
      </a>
    </g>
    <flowRoot
       transform="matrix(0.78960139,0,0,0.78960139,72.310181,28.535222)"
       style="font-style:normal;font-variant:normal;font-weight:normal;font-stretch:normal;font-size:12px;line-height:1.25;font-family:sans-serif;-inkscape-font-specification:'sans-serif, Normal';font-variant-ligatures:normal;font-variant-caps:normal;font-variant-numeric:normal;font-feature-settings:normal;text-align:start;letter-spacing:0px;word-spacing:0px;writing-mode:lr-tb;text-anchor:start;fill:#000000;fill-opacity:1;stroke:none"
       id="flowRoot988"
       xml:space="preserve"><flowRegion
         style="font-style:normal;font-variant:normal;font-weight:normal;font-stretch:normal;font-size:12px;font-family:sans-serif;-inkscape-font-specification:'sans-serif, Normal';font-variant-ligatures:normal;font-variant-caps:normal;font-variant-numeric:normal;font-feature-settings:normal;text-align:start;writing-mode:lr-tb;text-anchor:start"
         id="flowRegion990"><rect
           style="font-style:normal;font-variant:normal;font-weight:normal;font-stretch:normal;font-size:12px;font-family:sans-serif;-inkscape-font-specification:'sans-serif, Normal';font-variant-ligatures:normal;font-variant-caps:normal;font-variant-numeric:normal;font-feature-settings:normal;text-align:start;writing-mode:lr-tb;text-anchor:start"
           y="-11.375"
           x="-75.25"
           height="74.875"
           width="92.875"
           id="rect992" /></flowRegion><flowPara
         style="font-style:normal;font-variant:normal;font-weight:normal;font-stretch:normal;font-size:12px;font-family:sans-serif;-inkscape-font-specification:'sans-serif, Normal';font-variant-ligatures:normal;font-variant-caps:normal;font-variant-numeric:normal;font-feature-settings:normal;text-align:start;writing-mode:lr-tb;text-anchor:start"
         id="flowPara994">3</flowPara></flowRoot>
  </g>
  <g
     transform="matrix(5.9353133,0,0,5.9353133,-13.349563,-66.203136)"
     id="g1015">
    <path
       transform="matrix(0.004,0,0,-0.004,1.3162,0.03999969)"
       d="m 0,0 c 0,-198 209,-335 209,-533 0,-71 -16,-141 -42,-207 -5,-8 -12,-12 -19,-12 -13,0 -26,11 -23,27 26,61 42,126 42,192 0,104 -95,208 -167,283 H -16 V 0 Z"
       id="path1007"
       inkscape:connector-curvature="0"
       style="fill:currentColor" />
    <rect
       transform="translate(1.2512,1.9999997)"
       x="-0.064999998"
       y="-2"
       width="0.13"
       height="3.3122001"
       ry="0.039999999"
       id="rect1009"
       style="fill:currentColor" />
    <a
       id="a1013"
       transform="translate(-94.8335,-6.3453003)">
      <path
         transform="matrix(0.004,0,0,-0.004,94.8335,9.8453)"
         d="m 220,138 c 56,0 109,-29 109,-91 0,-72 -56,-121 -103,-149 -36,-21 -76,-36 -117,-36 -56,0 -109,29 -109,91 0,72 56,121 103,149 36,21 76,36 117,36 z"
         id="path1011"
         inkscape:connector-curvature="0"
         style="fill:currentColor" />
    </a>
  </g>
  <path
     d="m -315.45596,-93.757124 c -4.16789,-0.220261 -7.42483,-3.920172 -8.73173,-7.745936 -0.7918,-2.24544 -0.35688,-5.61404 2.28096,-6.24478 3.82173,-0.64909 6.99301,2.59737 8.77039,5.70411 1.26613,2.304253 1.96615,5.932962 -0.40768,7.759512 -0.56366,0.377903 -1.24507,0.529634 -1.91177,0.527094 z m 6.63954,-13.116026 c -4.69568,-2.85192 -10.62728,-3.07411 -15.76923,-1.47802 -3.2572,1.13879 -6.98229,3.56131 -7.01311,7.50408 -0.002,3.863114 3.59258,6.273029 6.77367,7.420797 5.03611,1.647363 10.8468,1.502507 15.5488,-1.12364 2.66161,-1.416023 5.02069,-4.348303 4.22074,-7.598407 -0.43987,-2.08995 -2.04086,-3.65376 -3.76087,-4.72481 z"
     style="fill:#000000;fill-opacity:1;stroke-width:2.42741"
     id="path2918" />
  <path
     d="m -315.45596,-73.502309 c -4.16789,-0.220262 -7.42483,-3.920172 -8.73173,-7.745934 -0.7918,-2.245441 -0.35688,-5.613996 2.28096,-6.244741 3.82173,-0.649093 6.99301,2.597334 8.77039,5.704115 1.26613,2.30425 1.96615,5.932915 -0.40768,7.759509 -0.56366,0.377904 -1.24507,0.529634 -1.91177,0.527051 z m 6.63954,-13.115979 c -4.69568,-2.85197 -10.62728,-3.074114 -15.76923,-1.478072 -3.2572,1.138835 -6.98229,3.56136 -7.01311,7.504128 -0.002,3.863114 3.59258,6.273029 6.77367,7.420797 5.03611,1.647363 10.8468,1.502507 15.5488,-1.12364 2.66161,-1.416067 5.02069,-4.348303 4.22074,-7.598451 -0.43987,-2.0899 -2.04086,-3.653713 -3.76087,-4.724762 z"
     style="fill:#000000;fill-opacity:1;stroke-width:2.42741"
     id="path844" />
  <path
     d="m -316.55083,-114.01194 c -4.16785,-0.22026 -7.42483,-3.92017 -8.73173,-7.74593 -0.79176,-2.24549 -0.35688,-5.61404 2.28096,-6.24479 3.82173,-0.64909 6.99301,2.59738 8.77039,5.70412 1.26613,2.30425 1.96615,5.93296 -0.40768,7.75951 -0.56366,0.3779 -1.24507,0.52963 -1.91177,0.52709 z m 6.63959,-13.11602 c -4.69573,-2.85197 -10.62733,-3.07411 -15.76928,-1.47803 -3.25715,1.13879 -6.98229,3.56132 -7.01311,7.50409 -0.002,3.86311 3.59258,6.27302 6.77367,7.42079 5.03611,1.64737 10.8468,1.50251 15.54884,-1.12364 2.66157,-1.41606 5.02069,-4.3483 4.2207,-7.5984 -0.43987,-2.08995 -2.04081,-3.65376 -3.76082,-4.72481 z"
     style="fill:#000000;fill-opacity:1;stroke-width:2.42741"
     id="path846" />
  <path
     style="fill:none;stroke:#000000;stroke-width:4.37896;stroke-linecap:butt;stroke-linejoin:miter;stroke-miterlimit:4;stroke-dasharray:none;stroke-opacity:1"
     d="m -422.32148,-110.96953 h 212.40202"
     id="path834" />
  <path
     style="fill:none;stroke:#000000;stroke-width:4.37896;stroke-linecap:butt;stroke-linejoin:miter;stroke-miterlimit:4;stroke-dasharray:none;stroke-opacity:1"
     d="m -422.32148,-90.098857 h 212.40202"
     id="path836" />
  <path
     style="fill:none;stroke:#000000;stroke-width:4.37896;stroke-linecap:butt;stroke-linejoin:miter;stroke-miterlimit:4;stroke-dasharray:none;stroke-opacity:1"
     d="m -422.32148,-152.71091 h 212.40202"
     id="path838" />
  <path
     style="fill:none;stroke:#000000;stroke-width:4.37896;stroke-linecap:butt;stroke-linejoin:miter;stroke-miterlimit:4;stroke-dasharray:none;stroke-opacity:1"
     d="m -422.70858,-132.2273 h 212.40202"
     id="path840" />
  <path
     style="fill:none;stroke:#000000;stroke-width:4.37896;stroke-linecap:butt;stroke-linejoin:miter;stroke-miterlimit:4;stroke-dasharray:none;stroke-opacity:1"
     d="m -422.32148,-173.58158 h 212.40202"
     id="path842" />
  <path
     d="m -296.87566,-84.340793 c -4.16785,-0.220261 -7.42483,-3.920172 -8.73168,-7.745934 -0.79181,-2.245485 -0.35689,-5.61404 2.28091,-6.244785 3.82173,-0.649092 6.99301,2.597378 8.77039,5.704115 1.26617,2.30425 1.96615,5.932959 -0.40768,7.759509 -0.56366,0.377904 -1.24503,0.529635 -1.91177,0.527095 z m 6.63959,-13.116022 c -4.69573,-2.851975 -10.62733,-3.074115 -15.76928,-1.478029 -3.25715,1.138791 -6.98228,3.561317 -7.01311,7.504084 -0.002,3.863115 3.59258,6.273029 6.77367,7.420797 5.03615,1.647363 10.84681,1.502507 15.54884,-1.12364 2.66162,-1.416066 5.02069,-4.348303 4.22074,-7.598407 -0.4399,-2.089944 -2.04085,-3.653757 -3.76086,-4.724805 z"
     style="fill:#000000;fill-opacity:1;stroke-width:2.42741"
     id="path864" />
  <text
     xml:space="preserve"
     id="text866"
     style="font-style:normal;font-variant:normal;font-weight:normal;font-stretch:condensed;font-size:40px;line-height:1.25;font-family:Impact;-inkscape-font-specification:'Impact, Condensed';font-variant-ligatures:normal;font-variant-caps:normal;font-variant-numeric:normal;font-feature-settings:normal;text-align:start;letter-spacing:0px;word-spacing:0px;writing-mode:lr-tb;white-space:pre;shape-inside:url(#rect868);fill:#000000;fill-opacity:1;stroke:none"
     transform="translate(-478.20977,-97.892924)"><tspan
       x="-79.734375"
       y="69.390946"
       id="tspan41829"><tspan
         dx="0 20 20 20 20"
         style="font-stretch:normal;font-family:Marl;-inkscape-font-specification:'Marl, Normal'"
         id="tspan41827">azzss</tspan></tspan></text>
  <path
     sodipodi:nodetypes="ccssscccc"
     id="path11058"
     d="m -104.66162,-386.41199 v 74.57327 c -3.618,-2.72682 -9.81627,-3.04969 -15.77084,-0.37549 -7.68929,3.45329 -12.01541,10.53917 -9.63775,15.83344 2.37769,5.29428 10.52228,6.83273 18.21159,3.37946 0.48057,-0.21582 0.986,-0.44542 1.43939,-0.6884 5.9506,-3.18919 9.46833,-8.62977 8.76159,-13.26755 v -79.45473 z"
     style="color:#000000;font-style:normal;font-variant:normal;font-weight:normal;font-stretch:normal;font-size:medium;line-height:normal;font-family:Sans;-inkscape-font-specification:Sans;text-indent:0;text-align:start;text-decoration:none;text-decoration-line:none;letter-spacing:normal;word-spacing:normal;text-transform:none;writing-mode:lr-tb;direction:ltr;baseline-shift:baseline;text-anchor:start;display:inline;overflow:visible;visibility:visible;fill:#000000;fill-opacity:1;stroke:none;stroke-width:1.5;marker:none;enable-background:accumulate"
     inkscape:connector-curvature="0" />
  <path
     style="fill:#000000;fill-opacity:1"
     id="path4149"
     d="m -161.15166,-299.88372 v -17.00357 l 7.04638,-1.99531 v 16.91681 z m 13.87432,-4.11353 -4.84438,1.42418 v -16.91681 l 4.84438,-1.38803 v -7.02698 l -4.84438,1.38804 v -17.28468 h -1.98356 v 17.80881 l -7.04638,2.07845 v -16.80753 h -1.87081 v 17.44734 l -4.84439,1.39166 v 7.04143 l 4.84439,-1.38805 v 16.88428 l -4.84439,1.38444 v 7.01252 l 4.84439,-1.38804 v 17.18708 h 1.87081 v -17.80159 l 7.04638,-1.98808 v 16.72079 h 1.98356 v -17.34975 l 4.84438,-1.39166 z"
     inkscape:connector-curvature="0" />
  <g
     id="g2994"
     transform="translate(-33.694009,-303.57156)">
    <path
       style="opacity:0.25;fill:#000000"
       d="m -113.58333,47.66667 h -100 v -2 -2 h 100 100.000003 v 2 2 z"
       id="path2855"
       inkscape:connector-curvature="0" />
    <path
       style="opacity:0.25;fill:#000000"
       d="m -113.58333,23.666667 h -100 v -2 -2 h 100 100.000003 v 2 2 z"
       id="path2853"
       inkscape:connector-curvature="0" />
    <path
       style="opacity:0.25;fill:#000000"
       d="m -113.58333,-0.33333304 h -100 v -1.99999996 -2 h 100 100.000003 v 2 1.99999996 z"
       id="path2851"
       inkscape:connector-curvature="0" />
    <path
       style="opacity:0.25;fill:#000000"
       d="m -113.58333,-24.333333 h -100 v -2 -2 h 100 100.000003 v 2 2 z"
       id="path2849"
       clip-path="none"
       inkscape:connector-curvature="0" />
    <g
       id="g3714"
       transform="translate(36,-66.5)">
      <path
         d="m -149.58333,18.166667 h -100 v -2 -2 h 100 100.000003 v 2 2 z"
         style="opacity:0.25;fill:#000000;fill-opacity:1"
         id="path2847"
         inkscape:connector-curvature="0" />
    </g>
  </g>
  <g
     id="g1367"
     transform="translate(-326.68334,-196.57568)">
    <path
       d="m 258,-360.9721 v 87"
       id="path12486"
       style="stroke:#000000;stroke-width:2" />
    <ellipse
       id="path12491"
       cx="320.00531"
       cy="-165.28508"
       rx="16.799999"
       ry="11.4"
       transform="matrix(0.93219237,-0.36196324,0.3342115,0.9424981,0,0)"
       style="fill:#000000" />
  </g>
  <path
     d="m -128.54272,-512.5263 v 59.88477 c 0,0 13.35038,-9.2298 17.41602,-13.18555 2.25658,-2.19559 3.89378,-5.60112 3.73633,-8.68164 -0.30685,-6.00363 -4.32882,-9.98827 -9.55859,-9.77929 -4.58895,0.18336 -8.76393,3.95703 -8.76393,3.95703 v -32.19532 z m 7.41797,33.40235 c 3.18658,0 5.44893,3.94393 5.27344,6.92383 -0.34013,5.77556 -3.62868,9.31156 -9.86158,13.625 v -16.81142 c 0,0 1.9146,-3.73741 4.58814,-3.73741 z"
     id="path12495"
     style="fill:#000000" />
  <path
     d="M 139,-238.9721 H 923.18259"
     id="path12476"
     style="fill:none;stroke:#000000;stroke-width:3.244;stroke-miterlimit:4;stroke-dasharray:none"
     inkscape:export-xdpi="35.709999"
     inkscape:export-ydpi="35.709999" />
  <path
     id="path12478"
     d="M 139,-136.9721 H 923.18259"
     style="fill:none;stroke:#000000;stroke-width:3.244;stroke-miterlimit:4;stroke-dasharray:none"
     inkscape:export-xdpi="35.709999"
     inkscape:export-ydpi="35.709999" />
  <path
     d="M 139,-161.9721 H 923.18259"
     id="path12480"
     style="fill:none;stroke:#000000;stroke-width:3.244;stroke-miterlimit:4;stroke-dasharray:none"
     inkscape:export-xdpi="35.709999"
     inkscape:export-ydpi="35.709999" />
  <path
     id="path12482"
     d="M 139,-187.9721 H 923.18259"
     style="fill:none;stroke:#000000;stroke-width:3.244;stroke-miterlimit:4;stroke-dasharray:none"
     inkscape:export-xdpi="35.709999"
     inkscape:export-ydpi="35.709999" />
  <path
     d="M 139,-212.9721 H 923.18259"
     id="path12484"
     style="fill:none;stroke:#000000;stroke-width:3.244;stroke-miterlimit:4;stroke-dasharray:none"
     inkscape:export-xdpi="35.709999"
     inkscape:export-ydpi="35.709999" />
  <path
     d="m 197.28519,-149.07754 c 0,0 -4.93544,-3.52531 -7.28565,-9.16581 -2.41198,-5.78874 -0.58755,-11.98607 4.4654,-15.04134 5.21737,-3.15469 10.34092,-3.64282 15.39386,-2.70274 6.31084,1.17411 10.45843,5.05295 11.75105,8.81328 2.05715,5.98444 1.93803,11.7239 0,16.56898 -1.1751,2.93776 -5.60084,7.55964 -10.92847,9.75337 -3.99536,1.64514 -13.04366,3.05527 -18.56665,0.94008 -6.52549,-2.49912 -15.08434,-6.42278 -19.85927,-15.15885 -5.11773,-9.36324 -3.99536,-17.39155 -0.47004,-24.79471 2.44182,-5.12782 7.63818,-12.4561 14.45378,-18.56664 4.08517,-3.66257 14.21877,-11.1635 20.68184,-17.50906 4.89795,-4.8089 12.22109,-15.98142 13.16117,-22.32699 0.94009,-6.34556 2.84873,-13.81738 0.23502,-23.85462 -1.89045,-7.25979 -7.13291,-17.99507 -10.92847,-17.9791 -3.25169,0.0137 -6.41225,4.59113 -8.57826,7.63818 -3.32427,4.67645 -6.77206,12.98984 -7.52067,18.09661 -1.69171,11.54029 -0.32181,19.75574 0.70506,25.8523 6.68644,39.6974 11.0208,66.64777 17.62657,107.63957 0.98361,6.1037 0.58755,13.16118 -0.11751,15.62889 -0.70506,2.46772 -4.5389,6.87172 -7.8732,8.34325 -12.44289,5.49143 -18.56665,-1.64515 -18.56665,-1.64515 0,0 11.36746,-2.58078 11.16349,-11.86855 -0.12099,-5.50956 -4.22678,-10.45842 -9.98839,-10.45843 -6.58058,-10e-6 -10.79453,4.8681 -11.51602,10.81095 -0.52258,4.30443 0.23502,9.98839 5.6405,13.74873 4.55331,3.16752 13.39619,5.52299 20.2118,3.87784 4.59766,-1.10978 13.4492,-6.96662 14.33628,-15.39386 0.47004,-4.46539 0.27775,-7.1671 -0.70507,-13.51371 -5.67006,-36.61486 -13.38503,-78.36962 -17.39155,-112.33999 -1.2003,-10.17716 5.28932,-31.18465 13.74873,-30.90525 2.30829,0.0762 6.37459,1.41247 6.69809,9.87088 0.20738,5.42224 -3.4078,11.98607 -11.04598,20.56433 -4.86758,5.46666 -15.27636,13.27868 -21.62192,18.68416 -6.34557,5.40548 -15.28312,13.76562 -18.80167,22.56201 -4.70042,11.75104 -4.61153,19.19056 -2.82026,27.0274 1.88017,8.22573 5.28798,14.45378 9.63586,18.33163 5.40319,4.81907 12.23384,9.33312 19.27171,10.69345 7.08278,1.36901 18.80168,0.70506 24.6772,-2.58523 5.87552,-3.29029 11.709,-9.5294 13.39619,-15.86391 1.79848,-6.75232 1.52764,-13.5137 -0.23502,-18.33163 -2.39676,-6.55114 -5.9283,-12.91903 -15.7464,-15.62889 -8.38005,-2.31295 -20.31172,0.0208 -26.79238,8.46075 -5.05295,6.58059 -5.51036,17.06495 -2.11519,22.56201 6.03634,9.77335 12.22109,9.16581 12.22109,9.16581 z"
     id="path12500"
     style="fill:#000000;stroke:none"
     inkscape:export-xdpi="35.709999"
     inkscape:export-ydpi="35.709999" />
  <path
     d="m 343.23454,-412.43478 v 52.11861 c 0,0 11.61903,-8.03284 15.15741,-11.47557 1.96395,-1.91087 3.38883,-4.87475 3.25179,-7.55578 -0.26705,-5.22504 -3.76742,-8.69294 -8.31898,-8.51106 -3.99383,0.15958 -7.62738,3.44388 -7.62738,3.44388 v -28.02008 z m 6.45597,29.07057 c 2.77332,0 4.74229,3.43245 4.58956,6.0259 -0.29603,5.02656 -3.15809,8.104 -8.58269,11.85804 v -14.63123 c 0,0 1.66631,-3.25271 3.99313,-3.25271 z"
     id="path1377"
     style="fill:#000000;stroke-width:0.870318"
     inkscape:export-xdpi="35.709999"
     inkscape:export-ydpi="35.709999" />
  <path
     style="fill:#000000;fill-opacity:1;stroke-width:0.888124"
     id="path1379"
     d="m 356.21482,-430.17664 v -15.10128 l 6.25807,-1.77209 v 15.02423 z m 12.32213,-3.65332 -4.30241,1.26485 v -15.02424 l 4.30241,-1.23274 v -6.24084 l -4.30241,1.23276 v -15.35097 h -1.76165 v 15.81645 l -6.25807,1.84592 v -14.92718 h -1.66151 v 15.49542 l -4.30242,1.23596 v 6.25368 l 4.30242,-1.23277 v 14.99535 l -4.30242,1.22956 v 6.22799 l 4.30242,-1.23275 v 15.26428 h 1.66151 v -15.81004 l 6.25807,-1.76566 v 14.85015 h 1.76165 v -15.40875 l 4.30241,-1.23597 z"
     inkscape:connector-curvature="0"
     inkscape:export-xdpi="35.709999"
     inkscape:export-ydpi="35.709999" />
  <path
     d="m 526.71538,-406.88062 c -5.94679,-0.3143 -10.59393,-5.59342 -12.45865,-11.05217 -1.12977,-3.20385 -0.50921,-8.01019 3.25453,-8.91015 5.45294,-0.92616 9.97781,3.70599 12.51382,8.13876 1.80654,3.28777 2.80536,8.4653 -0.58169,11.07147 -0.80424,0.5392 -1.7765,0.7557 -2.72776,0.75209 z m 9.47354,-18.71429 c -6.69999,-4.06927 -15.16334,-4.38622 -22.50001,-2.1089 -4.64738,1.62487 -9.9625,5.08139 -10.00648,10.70703 -0.003,5.51198 5.12598,8.95052 9.66485,10.58819 7.18565,2.3505 15.47648,2.1438 22.18547,-1.60325 3.79759,-2.02048 7.16365,-6.20427 6.02221,-10.84159 -0.62763,-2.98199 -2.91189,-5.21328 -5.36604,-6.74148 z"
     style="fill:#000000;fill-opacity:1;stroke-width:3.4635"
     id="path1387"
     inkscape:export-xdpi="35.709999"
     inkscape:export-ydpi="35.709999" />
  <path
     d="m 402.43616,-366.17352 c -5.94679,-0.3143 -10.59393,-5.59342 -12.45865,-11.05217 -1.12977,-3.20385 -0.50921,-8.01019 3.25453,-8.91015 5.45294,-0.92616 9.97781,3.70599 12.51382,8.13876 1.80654,3.28777 2.80536,8.4653 -0.58169,11.07147 -0.80424,0.5392 -1.7765,0.7557 -2.72776,0.75209 z m 9.47354,-18.71429 c -6.69999,-4.06927 -15.16334,-4.38622 -22.50001,-2.1089 -4.64738,1.62487 -9.9625,5.08139 -10.00648,10.70703 -0.003,5.51198 5.12598,8.95052 9.66485,10.58819 7.18565,2.3505 15.47648,2.1438 22.18547,-1.60325 3.79759,-2.02048 7.16365,-6.20427 6.02221,-10.84159 -0.62763,-2.98199 -2.91189,-5.21328 -5.36604,-6.74148 z"
     style="fill:#000000;fill-opacity:1;stroke-width:3.4635"
     id="path1389" />
  <path
     d="m 404.55748,-422.03496 c -5.94679,-0.3143 -10.59393,-5.59342 -12.45865,-11.05217 -1.12977,-3.20385 -0.50921,-8.01019 3.25453,-8.91015 5.45294,-0.92616 9.97781,3.70599 12.51382,8.13876 1.80654,3.28777 2.80536,8.4653 -0.58169,11.07147 -0.80424,0.5392 -1.7765,0.7557 -2.72776,0.75209 z m 9.47354,-18.71429 c -6.69999,-4.06927 -15.16334,-4.38622 -22.50001,-2.1089 -4.64738,1.62487 -9.9625,5.08139 -10.00648,10.70703 -0.003,5.51198 5.12598,8.95052 9.66485,10.58819 7.18565,2.3505 15.47648,2.1438 22.18547,-1.60325 3.79759,-2.02048 7.16365,-6.20427 6.02221,-10.84159 -0.62763,-2.98199 -2.91189,-5.21328 -5.36604,-6.74148 z"
     style="fill:#000000;fill-opacity:1;stroke-width:3.4635"
     id="path1391" />
  <path
     d="m 493.5,-343.70433 h 65.18259"
     id="path914"
     style="fill:none;stroke:#000000;stroke-width:3.235;stroke-miterlimit:4;stroke-dasharray:none"
     inkscape:export-xdpi="29.67528"
     inkscape:export-ydpi="29.67528" />
  <path
     d="m 268.11547,-153.12977 c 0,0 -3.85909,-2.75649 -5.69677,-7.16688 -1.88596,-4.52631 -0.4594,-9.37209 3.49158,-11.76106 4.07954,-2.4667 8.08572,-2.84837 12.03669,-2.11331 4.93454,0.91806 8.17761,3.95098 9.18832,6.89124 1.60852,4.67933 1.51538,9.1671 0,12.95554 -0.91882,2.29708 -4.37937,5.911 -8.54513,7.6263 -3.12404,1.28637 -10.19904,2.38897 -14.51754,0.73507 -5.10239,-1.9541 -11.79469,-5.02207 -15.52828,-11.85293 -4.00163,-7.32126 -3.12404,-13.59873 -0.36753,-19.38737 1.9093,-4.00952 5.97241,-9.73961 11.30164,-14.51754 3.19425,-2.86382 11.11787,-8.72891 16.17144,-13.69061 3.82978,-3.76014 9.55586,-12.49611 10.29092,-17.45781 0.73508,-4.96168 2.22747,-10.80402 0.18377,-18.65228 -1.47818,-5.67654 -5.57733,-14.07063 -8.54514,-14.05814 -2.54254,0.0107 -5.01384,3.58987 -6.70747,5.97241 -2.5993,3.65658 -5.29518,10.15695 -5.88053,14.15002 -1.32277,9.02353 -0.25163,15.44731 0.5513,20.2143 5.22823,31.04001 8.61733,52.11292 13.78248,84.16503 0.7691,4.77257 0.45941,10.29093 -0.0919,12.22046 -0.5513,1.92956 -3.54904,5.37312 -6.15617,6.52372 -9.72929,4.29384 -14.51755,-1.28636 -14.51755,-1.28636 0,0 8.88838,-2.01795 8.7289,-9.28021 -0.0946,-4.30801 -3.30498,-8.1776 -7.81007,-8.17761 -5.14547,0 -8.44042,3.80645 -9.00456,8.45326 -0.40861,3.3657 0.18376,7.81007 4.4104,10.75034 3.56031,2.47673 10.47469,4.3185 15.80391,3.03214 3.59498,-0.86776 10.51614,-5.4473 11.20975,-12.03669 0.36754,-3.49155 0.21718,-5.60407 -0.5513,-10.56659 -4.4335,-28.62971 -10.46596,-61.27839 -13.59872,-87.84035 -0.93853,-7.95768 4.13581,-24.38376 10.75035,-24.16529 1.80488,0.0596 4.98438,1.10443 5.23734,7.7182 0.16216,4.23973 -2.66462,9.37209 -8.63702,16.07956 -3.80604,4.27446 -11.94482,10.3828 -16.90651,14.60944 -4.96169,4.22661 -11.95011,10.76355 -14.70132,17.64157 -3.67533,9.18832 -3.60583,15.0054 -2.20521,21.13313 1.47015,6.43183 4.13476,11.30164 7.53443,14.3338 4.22484,3.76809 9.56583,7.2977 15.06885,8.36136 5.53813,1.07046 14.70132,0.55131 19.29548,-2.02143 4.59416,-2.57273 9.15545,-7.45118 10.47469,-12.40424 1.40625,-5.27973 1.19448,-10.56656 -0.18378,-14.33378 -1.87405,-5.12244 -4.63542,-10.10158 -12.31234,-12.22046 -6.55249,-1.80853 -15.88205,0.0163 -20.94938,6.61558 -3.95098,5.14547 -4.30862,13.34335 -1.65389,17.64159 4.7199,7.64193 9.55586,7.16688 9.55586,7.16688 z"
     id="path913"
     style="fill:#000000;stroke:none;stroke-width:0.781915"
     inkscape:export-xdpi="35.709999"
     inkscape:export-ydpi="35.709999"
     inkscape:export-filename="C:\Users\Administrateur.000\Documents\JJazzLab\src\JJazzLab-X\CL_Editor\src\org\jjazz\ui\cl_editor\actions\resources\path913.png" />
  <g
     id="g32161"
     transform="translate(-53.375001,-48.375)">
    <path
       id="path32157"
       style="opacity:1;fill:#000000;fill-opacity:1;fill-rule:evenodd;stroke:#000000;stroke-width:0.116897;stroke-miterlimit:4;stroke-dasharray:none;stroke-dashoffset:0;stroke-opacity:1"
       d="m 11.673291,26.301642 c 1.984812,-1.063742 3.042399,-2.98937 2.391834,-4.437959 -0.693933,-1.545164 -3.078479,-1.981235 -5.322644,-0.973381 -2.2441589,1.00786 -3.5023177,3.079877 -2.808384,4.625034 0.6939395,1.545164 3.0784796,1.981235 5.322644,0.973381 0.140259,-0.06299 0.284223,-0.11616 0.41655,-0.187075 z"
       inkscape:connector-curvature="0"
       sodipodi:nodetypes="cssssc" />
    <path
       id="path32159"
       style="fill:#000000;fill-opacity:1;fill-rule:evenodd;stroke:#000000;stroke-width:0.876725;stroke-linecap:butt;stroke-linejoin:miter;stroke-miterlimit:4;stroke-dasharray:none;stroke-opacity:1"
       d="M 13.840623,22.599881 V 2.9685056"
       inkscape:connector-curvature="0" />
  </g>
  <g
     id="g33023"
     transform="translate(-39.750001,-48.375)">
    <path
       id="path33019"
       style="opacity:1;fill:#000000;fill-opacity:1;fill-rule:evenodd;stroke:#000000;stroke-width:0.116897;stroke-miterlimit:4;stroke-dasharray:none;stroke-dashoffset:0;stroke-opacity:1"
       d="m 11.673291,26.301642 c 1.984812,-1.063742 3.042399,-2.98937 2.391834,-4.437959 -0.693933,-1.545164 -3.078479,-1.981235 -5.322644,-0.973381 -2.2441589,1.00786 -3.5023177,3.079877 -2.808384,4.625034 0.6939395,1.545164 3.0784796,1.981235 5.322644,0.973381 0.140259,-0.06299 0.284223,-0.11616 0.41655,-0.187075 z"
       inkscape:connector-curvature="0"
       sodipodi:nodetypes="cssssc" />
    <path
       id="path33021"
       style="fill:#000000;fill-opacity:1;fill-rule:evenodd;stroke:#000000;stroke-width:0.876725;stroke-linecap:butt;stroke-linejoin:miter;stroke-miterlimit:4;stroke-dasharray:none;stroke-opacity:1"
       d="M 13.840623,22.599881 V 2.9685056"
       inkscape:connector-curvature="0" />
  </g>
  <g
     id="g33029"
     transform="translate(-39.750001,-48.375)">
    <path
       id="path33025"
       style="opacity:1;fill:#000000;fill-opacity:1;fill-rule:evenodd;stroke:#000000;stroke-width:0.116897;stroke-miterlimit:4;stroke-dasharray:none;stroke-dashoffset:0;stroke-opacity:1"
       d="m 11.673291,26.301642 c 1.984812,-1.063742 3.042399,-2.98937 2.391834,-4.437959 -0.693933,-1.545164 -3.078479,-1.981235 -5.322644,-0.973381 -2.2441589,1.00786 -3.5023177,3.079877 -2.808384,4.625034 0.6939395,1.545164 3.0784796,1.981235 5.322644,0.973381 0.140259,-0.06299 0.284223,-0.11616 0.41655,-0.187075 z"
       inkscape:connector-curvature="0"
       sodipodi:nodetypes="cssssc" />
    <path
       id="path33027"
       style="fill:#000000;fill-opacity:1;fill-rule:evenodd;stroke:#000000;stroke-width:0.876725;stroke-linecap:butt;stroke-linejoin:miter;stroke-miterlimit:4;stroke-dasharray:none;stroke-opacity:1"
       d="M 13.840623,22.599881 V 2.9685056"
       inkscape:connector-curvature="0" />
  </g>
  <rect
     style="fill:#000000;fill-opacity:1;stroke:#000000;stroke-width:0.055;stroke-miterlimit:4;stroke-dasharray:none;stroke-opacity:1;stop-color:#000000"
     id="rect33053"
     width="13.284378"
     height="2.4064944"
     x="-39.534378"
     y="-45.406494" />
  <g
     id="g33139"
     transform="matrix(0.37717601,0,0,0.37135206,16.228241,3.7705213)"
     inkscape:export-filename="C:\Users\Jerome\Documents\JJazzLab\src\JJazzLab-X\Graphics\SwingTransformer-32x16.png"
     inkscape:export-xdpi="96"
     inkscape:export-ydpi="96"
     style="fill:#cccccc;stroke:#cccccc">
    <path
       id="path33135"
       style="opacity:1;fill:#cccccc;fill-opacity:1;fill-rule:evenodd;stroke:#cccccc;stroke-width:0.116897;stroke-miterlimit:4;stroke-dasharray:none;stroke-dashoffset:0;stroke-opacity:1"
       d="m 11.673291,26.301642 c 1.984812,-1.063742 3.042399,-2.98937 2.391834,-4.437959 -0.693933,-1.545164 -3.078479,-1.981235 -5.322644,-0.973381 -2.2441589,1.00786 -3.5023177,3.079877 -2.808384,4.625034 0.6939395,1.545164 3.0784796,1.981235 5.322644,0.973381 0.140259,-0.06299 0.284223,-0.11616 0.41655,-0.187075 z"
       inkscape:connector-curvature="0"
       sodipodi:nodetypes="cssssc" />
    <path
       id="path33137"
       style="fill:#cccccc;fill-opacity:1;fill-rule:evenodd;stroke:#cccccc;stroke-width:0.876725;stroke-linecap:butt;stroke-linejoin:miter;stroke-miterlimit:4;stroke-dasharray:none;stroke-opacity:1"
       d="M 13.840623,22.599881 V 2.9685056"
       inkscape:connector-curvature="0" />
  </g>
  <g
     id="g33333"
     transform="translate(5.75,-2.75)">
    <g
       id="g33307"
       transform="translate(15.624999,-66.625)">
      <path
         id="path33303"
         style="opacity:1;fill:#000000;fill-opacity:1;fill-rule:evenodd;stroke:#000000;stroke-width:0.116897;stroke-miterlimit:4;stroke-dasharray:none;stroke-dashoffset:0;stroke-opacity:1"
         d="m 11.673291,26.301642 c 1.984812,-1.063742 3.042399,-2.98937 2.391834,-4.437959 -0.693933,-1.545164 -3.078479,-1.981235 -5.322644,-0.973381 -2.2441589,1.00786 -3.5023177,3.079877 -2.808384,4.625034 0.6939395,1.545164 3.0784796,1.981235 5.322644,0.973381 0.140259,-0.06299 0.284223,-0.11616 0.41655,-0.187075 z"
         inkscape:connector-curvature="0"
         sodipodi:nodetypes="cssssc" />
      <path
         id="path33305"
         style="fill:#000000;fill-opacity:1;fill-rule:evenodd;stroke:#000000;stroke-width:0.876725;stroke-linecap:butt;stroke-linejoin:miter;stroke-miterlimit:4;stroke-dasharray:none;stroke-opacity:1"
         d="M 13.840623,22.599881 V 2.9685056"
         inkscape:connector-curvature="0" />
    </g>
    <g
       id="g33313"
       transform="translate(29.249999,-66.625)">
      <path
         id="path33309"
         style="opacity:1;fill:#000000;fill-opacity:1;fill-rule:evenodd;stroke:#000000;stroke-width:0.116897;stroke-miterlimit:4;stroke-dasharray:none;stroke-dashoffset:0;stroke-opacity:1"
         d="m 11.673291,26.301642 c 1.984812,-1.063742 3.042399,-2.98937 2.391834,-4.437959 -0.693933,-1.545164 -3.078479,-1.981235 -5.322644,-0.973381 -2.2441589,1.00786 -3.5023177,3.079877 -2.808384,4.625034 0.6939395,1.545164 3.0784796,1.981235 5.322644,0.973381 0.140259,-0.06299 0.284223,-0.11616 0.41655,-0.187075 z"
         inkscape:connector-curvature="0"
         sodipodi:nodetypes="cssssc" />
      <path
         id="path33311"
         style="fill:#000000;fill-opacity:1;fill-rule:evenodd;stroke:#000000;stroke-width:0.876725;stroke-linecap:butt;stroke-linejoin:miter;stroke-miterlimit:4;stroke-dasharray:none;stroke-opacity:1"
         d="M 13.840623,22.599881 V 2.9685056"
         inkscape:connector-curvature="0" />
    </g>
    <g
       id="g33319"
       transform="translate(29.249999,-66.625)">
      <path
         id="path33315"
         style="opacity:1;fill:#000000;fill-opacity:1;fill-rule:evenodd;stroke:#000000;stroke-width:0.116897;stroke-miterlimit:4;stroke-dasharray:none;stroke-dashoffset:0;stroke-opacity:1"
         d="m 11.673291,26.301642 c 1.984812,-1.063742 3.042399,-2.98937 2.391834,-4.437959 -0.693933,-1.545164 -3.078479,-1.981235 -5.322644,-0.973381 -2.2441589,1.00786 -3.5023177,3.079877 -2.808384,4.625034 0.6939395,1.545164 3.0784796,1.981235 5.322644,0.973381 0.140259,-0.06299 0.284223,-0.11616 0.41655,-0.187075 z"
         inkscape:connector-curvature="0"
         sodipodi:nodetypes="cssssc" />
      <path
         id="path33317"
         style="fill:#000000;fill-opacity:1;fill-rule:evenodd;stroke:#000000;stroke-width:0.876725;stroke-linecap:butt;stroke-linejoin:miter;stroke-miterlimit:4;stroke-dasharray:none;stroke-opacity:1"
         d="M 13.840623,22.599881 V 2.9685056"
         inkscape:connector-curvature="0" />
    </g>
    <rect
       style="fill:#000000;fill-opacity:1;stroke:#000000;stroke-width:0.055;stroke-miterlimit:4;stroke-dasharray:none;stroke-opacity:1;stop-color:#000000"
       id="rect33321"
       width="13.284378"
       height="2.4064944"
       x="29.465622"
       y="-63.656494" />
  </g>
  <g
     id="g33355"
     transform="matrix(0.3709292,0,0,0.3709292,-6.4866538,28.484934)"
     inkscape:export-filename="C:\Users\Jerome\Documents\JJazzLab\src\JJazzLab-X\Graphics\SwingTransformer-32x16.png"
     inkscape:export-xdpi="96"
     inkscape:export-ydpi="96"
     style="fill:#cccccc;stroke:#cccccc">
    <g
       id="g33339"
       transform="translate(15.624999,-66.625)"
       style="fill:#cccccc;stroke:#cccccc">
      <path
         id="path33335"
         style="opacity:1;fill:#cccccc;fill-opacity:1;fill-rule:evenodd;stroke:#cccccc;stroke-width:0.116897;stroke-miterlimit:4;stroke-dasharray:none;stroke-dashoffset:0;stroke-opacity:1"
         d="m 11.673291,26.301642 c 1.984812,-1.063742 3.042399,-2.98937 2.391834,-4.437959 -0.693933,-1.545164 -3.078479,-1.981235 -5.322644,-0.973381 -2.2441589,1.00786 -3.5023177,3.079877 -2.808384,4.625034 0.6939395,1.545164 3.0784796,1.981235 5.322644,0.973381 0.140259,-0.06299 0.284223,-0.11616 0.41655,-0.187075 z"
         inkscape:connector-curvature="0"
         sodipodi:nodetypes="cssssc" />
      <path
         id="path33337"
         style="fill:#cccccc;fill-opacity:1;fill-rule:evenodd;stroke:#cccccc;stroke-width:0.876725;stroke-linecap:butt;stroke-linejoin:miter;stroke-miterlimit:4;stroke-dasharray:none;stroke-opacity:1"
         d="M 13.840623,22.599881 V 2.9685056"
         inkscape:connector-curvature="0" />
    </g>
    <g
       id="g33345"
       transform="translate(29.249999,-66.625)"
       style="fill:#cccccc;stroke:#cccccc">
      <path
         id="path33341"
         style="opacity:1;fill:#cccccc;fill-opacity:1;fill-rule:evenodd;stroke:#cccccc;stroke-width:0.116897;stroke-miterlimit:4;stroke-dasharray:none;stroke-dashoffset:0;stroke-opacity:1"
         d="m 11.673291,26.301642 c 1.984812,-1.063742 3.042399,-2.98937 2.391834,-4.437959 -0.693933,-1.545164 -3.078479,-1.981235 -5.322644,-0.973381 -2.2441589,1.00786 -3.5023177,3.079877 -2.808384,4.625034 0.6939395,1.545164 3.0784796,1.981235 5.322644,0.973381 0.140259,-0.06299 0.284223,-0.11616 0.41655,-0.187075 z"
         inkscape:connector-curvature="0"
         sodipodi:nodetypes="cssssc" />
      <path
         id="path33343"
         style="fill:#cccccc;fill-opacity:1;fill-rule:evenodd;stroke:#cccccc;stroke-width:0.876725;stroke-linecap:butt;stroke-linejoin:miter;stroke-miterlimit:4;stroke-dasharray:none;stroke-opacity:1"
         d="M 13.840623,22.599881 V 2.9685056"
         inkscape:connector-curvature="0" />
    </g>
    <g
       id="g33351"
       transform="translate(29.249999,-66.625)"
       style="fill:#cccccc;stroke:#cccccc">
      <path
         id="path33347"
         style="opacity:1;fill:#cccccc;fill-opacity:1;fill-rule:evenodd;stroke:#cccccc;stroke-width:0.116897;stroke-miterlimit:4;stroke-dasharray:none;stroke-dashoffset:0;stroke-opacity:1"
         d="m 11.673291,26.301642 c 1.984812,-1.063742 3.042399,-2.98937 2.391834,-4.437959 -0.693933,-1.545164 -3.078479,-1.981235 -5.322644,-0.973381 -2.2441589,1.00786 -3.5023177,3.079877 -2.808384,4.625034 0.6939395,1.545164 3.0784796,1.981235 5.322644,0.973381 0.140259,-0.06299 0.284223,-0.11616 0.41655,-0.187075 z"
         inkscape:connector-curvature="0"
         sodipodi:nodetypes="cssssc" />
      <path
         id="path33349"
         style="fill:#cccccc;fill-opacity:1;fill-rule:evenodd;stroke:#cccccc;stroke-width:0.876725;stroke-linecap:butt;stroke-linejoin:miter;stroke-miterlimit:4;stroke-dasharray:none;stroke-opacity:1"
         d="M 13.840623,22.599881 V 2.9685056"
         inkscape:connector-curvature="0" />
    </g>
    <rect
       style="fill:#cccccc;fill-opacity:1;stroke:#cccccc;stroke-width:0.055;stroke-miterlimit:4;stroke-dasharray:none;stroke-opacity:1;stop-color:#000000"
       id="rect33353"
       width="13.284378"
       height="2.4064944"
       x="29.465622"
       y="-63.656494" />
  </g>
  <g
     id="g34310">
    <rect
       style="fill:#000000;fill-opacity:1;stroke:none;stroke-width:0.723293;stroke-miterlimit:4;stroke-dasharray:none;stroke-opacity:1;stop-color:#000000"
       id="rect33997"
       width="8.1507521"
       height="3.125"
       x="19.849249"
       y="-91.3125" />
    <path
       sodipodi:type="star"
       style="fill:#000000;fill-opacity:1;stroke:none;stroke-width:2;stroke-miterlimit:4;stroke-dasharray:none;stroke-opacity:1;stop-color:#000000"
       id="path34021"
       inkscape:flatsided="true"
       sodipodi:sides="3"
       sodipodi:cx="19.75"
       sodipodi:cy="-101.25"
       sodipodi:r1="4.808846"
       sodipodi:r2="2.404423"
       sodipodi:arg1="1.0471976"
       sodipodi:arg2="2.0943951"
       inkscape:rounded="0"
       inkscape:randomized="0"
       d="m 22.154423,-97.085417 -7.213269,-4.164583 7.213269,-4.16458 z"
       inkscape:transform-center-x="-0.9313783"
       transform="matrix(-0.77472073,0,0,1,42.759068,11.5)" />
  </g>
  <g
     transform="matrix(2.5540152,0,0,2.2106565,24.525437,4.8728827)"
     id="g34111"
     inkscape:export-filename="C:\Users\Jerome\Documents\JJazzLab\src\JJazzLab-X\Graphics\SwingTransformer-32x16.png"
     inkscape:export-xdpi="96"
     inkscape:export-ydpi="96"
     style="fill:#cccccc">
    <path
       transform="matrix(0.004,0,0,-0.004,1.3162,0.03999969)"
       d="m 0,0 c 0,-198 209,-335 209,-533 0,-71 -16,-141 -42,-207 -5,-8 -12,-12 -19,-12 -13,0 -26,11 -23,27 26,61 42,126 42,192 0,104 -95,208 -167,283 H -16 V 0 Z"
       id="path34103"
       inkscape:connector-curvature="0"
       style="fill:#cccccc" />
    <rect
       transform="translate(1.2512,1.9999997)"
       x="-0.064999998"
       y="-2"
       width="0.13"
       height="3.3122001"
       ry="0.039999999"
       id="rect34105"
       style="fill:#cccccc" />
    <a
       id="a34109"
       transform="translate(-94.8335,-6.3453003)"
       style="fill:#cccccc">
      <path
         transform="matrix(0.004,0,0,-0.004,94.8335,9.8453)"
         d="m 220,138 c 56,0 109,-29 109,-91 0,-72 -56,-121 -103,-149 -36,-21 -76,-36 -117,-36 -56,0 -109,29 -109,91 0,72 56,121 103,149 36,21 76,36 117,36 z"
         id="path34107"
         inkscape:connector-curvature="0"
         style="fill:#cccccc" />
    </a>
  </g>
  <g
     id="g34117"
     transform="matrix(0.37717601,0,0,0.37717601,-17.021759,-38.621767)">
    <path
       id="path34113"
       style="opacity:1;fill:#000000;fill-opacity:1;fill-rule:evenodd;stroke:#000000;stroke-width:0.116897;stroke-miterlimit:4;stroke-dasharray:none;stroke-dashoffset:0;stroke-opacity:1"
       d="m 11.673291,26.301642 c 1.984812,-1.063742 3.042399,-2.98937 2.391834,-4.437959 -0.693933,-1.545164 -3.078479,-1.981235 -5.322644,-0.973381 -2.2441589,1.00786 -3.5023177,3.079877 -2.808384,4.625034 0.6939395,1.545164 3.0784796,1.981235 5.322644,0.973381 0.140259,-0.06299 0.284223,-0.11616 0.41655,-0.187075 z"
       inkscape:connector-curvature="0"
       sodipodi:nodetypes="cssssc" />
    <path
       id="path34115"
       style="fill:#000000;fill-opacity:1;fill-rule:evenodd;stroke:#000000;stroke-width:0.876725;stroke-linecap:butt;stroke-linejoin:miter;stroke-miterlimit:4;stroke-dasharray:none;stroke-opacity:1"
       d="M 13.840623,22.599881 V 2.9685056"
       inkscape:connector-curvature="0" />
  </g>
  <g
     id="g34276"
     transform="matrix(0.38083594,0,0,0.37187568,27.767088,-33.858469)">
    <g
       transform="matrix(5.9353133,0,0,5.9353133,1.6130094,2.975057)"
       id="g34266">
      <path
         transform="matrix(0.004,0,0,-0.004,1.3162,0.03999969)"
         d="m 0,0 c 0,-198 209,-335 209,-533 0,-71 -16,-141 -42,-207 -5,-8 -12,-12 -19,-12 -13,0 -26,11 -23,27 26,61 42,126 42,192 0,104 -95,208 -167,283 H -16 V 0 Z"
         id="path34258"
         inkscape:connector-curvature="0"
         style="fill:currentColor" />
      <rect
         transform="translate(1.2512,1.9999997)"
         x="-0.064999998"
         y="-2"
         width="0.13"
         height="3.3122001"
         ry="0.039999999"
         id="rect34260"
         style="fill:currentColor" />
      <a
         id="a34264"
         transform="translate(-94.8335,-6.3453003)">
        <path
           transform="matrix(0.004,0,0,-0.004,94.8335,9.8453)"
           d="m 220,138 c 56,0 109,-29 109,-91 0,-72 -56,-121 -103,-149 -36,-21 -76,-36 -117,-36 -56,0 -109,29 -109,91 0,72 56,121 103,149 36,21 76,36 117,36 z"
           id="path34262"
           inkscape:connector-curvature="0"
           style="fill:currentColor" />
      </a>
    </g>
    <flowRoot
       transform="matrix(0.78960139,0,0,0.78960139,72.310181,28.535222)"
       style="font-style:normal;font-variant:normal;font-weight:normal;font-stretch:normal;font-size:12px;line-height:1.25;font-family:sans-serif;-inkscape-font-specification:'sans-serif, Normal';font-variant-ligatures:normal;font-variant-caps:normal;font-variant-numeric:normal;font-feature-settings:normal;text-align:start;letter-spacing:0px;word-spacing:0px;writing-mode:lr-tb;text-anchor:start;fill:#000000;fill-opacity:1;stroke:none"
       id="flowRoot34274"
       xml:space="preserve"><flowRegion
         style="font-style:normal;font-variant:normal;font-weight:normal;font-stretch:normal;font-size:12px;font-family:sans-serif;-inkscape-font-specification:'sans-serif, Normal';font-variant-ligatures:normal;font-variant-caps:normal;font-variant-numeric:normal;font-feature-settings:normal;text-align:start;writing-mode:lr-tb;text-anchor:start"
         id="flowRegion34270"><rect
           style="font-style:normal;font-variant:normal;font-weight:normal;font-stretch:normal;font-size:12px;font-family:sans-serif;-inkscape-font-specification:'sans-serif, Normal';font-variant-ligatures:normal;font-variant-caps:normal;font-variant-numeric:normal;font-feature-settings:normal;text-align:start;writing-mode:lr-tb;text-anchor:start"
           y="-11.375"
           x="-75.25"
           height="74.875"
           width="92.875"
           id="rect34268" /></flowRegion><flowPara
         style="font-style:normal;font-variant:normal;font-weight:normal;font-stretch:normal;font-size:12px;font-family:sans-serif;-inkscape-font-specification:'sans-serif, Normal';font-variant-ligatures:normal;font-variant-caps:normal;font-variant-numeric:normal;font-feature-settings:normal;text-align:start;writing-mode:lr-tb;text-anchor:start"
         id="flowPara34272">3</flowPara></flowRoot>
  </g>
  <g
     id="g34316"
     transform="matrix(0.42971478,0,0,0.42971478,4.1829916,47.066902)"
     inkscape:export-filename="C:\Users\Jerome\Documents\JJazzLab\src\JJazzLab-X\Graphics\SwingTransformer-32x16.png"
     inkscape:export-xdpi="96"
     inkscape:export-ydpi="96"
     style="fill:#cccccc">
    <rect
       style="fill:#cccccc;fill-opacity:1;stroke:none;stroke-width:0.723293;stroke-miterlimit:4;stroke-dasharray:none;stroke-opacity:1;stop-color:#000000"
       id="rect34312"
       width="8.1507521"
       height="3.125"
       x="19.849249"
       y="-91.3125" />
    <path
       sodipodi:type="star"
       style="fill:#cccccc;fill-opacity:1;stroke:none;stroke-width:2;stroke-miterlimit:4;stroke-dasharray:none;stroke-opacity:1;stop-color:#000000"
       id="path34314"
       inkscape:flatsided="true"
       sodipodi:sides="3"
       sodipodi:cx="19.75"
       sodipodi:cy="-101.25"
       sodipodi:r1="4.808846"
       sodipodi:r2="2.404423"
       sodipodi:arg1="1.0471976"
       sodipodi:arg2="2.0943951"
       inkscape:rounded="0"
       inkscape:randomized="0"
       d="m 22.154423,-97.085417 -7.213269,-4.164583 7.213269,-4.16458 z"
       inkscape:transform-center-x="-0.9313783"
       transform="matrix(-0.77472073,0,0,1,42.759068,11.5)" />
  </g>
  <text
     xml:space="preserve"
     id="text40952"
     style="font-style:normal;font-weight:normal;font-size:40px;line-height:1.25;font-family:sans-serif;white-space:pre;shape-inside:url(#rect40954);fill:#cccccc;fill-opacity:1;stroke:none"
     transform="matrix(0.10377883,0,0,0.10377883,45.631565,55.440743)"
     inkscape:export-filename="C:\Users\Jerome\Documents\JJazzLab\src\JJazzLab-X\Graphics\SwingTransformer-32x16.png"
     inkscape:export-xdpi="96"
     inkscape:export-ydpi="96"><tspan
       x="-214"
       y="-496.60938"
       id="tspan41831">3</tspan></text>
  <path
     style="fill:none;stroke:#cccccc;stroke-width:0.285945;stroke-linecap:butt;stroke-linejoin:miter;stroke-miterlimit:4;stroke-dasharray:none;stroke-opacity:1"
     d="m 21.991228,2.2541636 h -3.143343 v 1.321392"
     id="path40956"
     inkscape:export-filename="C:\Users\Jerome\Documents\JJazzLab\src\JJazzLab-X\Graphics\SwingTransformer-32x16.png"
     inkscape:export-xdpi="96"
     inkscape:export-ydpi="96" />
  <g
     id="g40972"
     transform="translate(9.875,-13)">
    <path
       style="fill:none;stroke:#000000;stroke-width:0.27089px;stroke-linecap:butt;stroke-linejoin:miter;stroke-opacity:1"
       d="m 72.385274,-27.82351 h 9.216281 v 3.749034"
       id="path40964" />
    <text
       xml:space="preserve"
       id="text40968"
       style="font-style:normal;font-weight:normal;font-size:40px;line-height:1.25;font-family:sans-serif;white-space:pre;shape-inside:url(#rect40974);fill:#000000;fill-opacity:1;stroke:none"
       transform="matrix(0.18190701,0,0,0.18190701,104.3991,64.940469)"><tspan
         x="-214"
         y="-496.60938"
         id="tspan41833">3</tspan></text>
    <path
       style="fill:none;stroke:#000000;stroke-width:0.27089px;stroke-linecap:butt;stroke-linejoin:miter;stroke-opacity:1"
       d="m 63.239726,-27.82351 h -9.216281 v 3.749034"
       id="path40970" />
  </g>
  <path
     style="fill:none;stroke:#cccccc;stroke-width:0.285945;stroke-linecap:butt;stroke-linejoin:miter;stroke-miterlimit:4;stroke-dasharray:none;stroke-opacity:1"
     d="m 27.089418,2.2541636 h 3.143343 v 1.321392"
     id="path41169"
     inkscape:export-filename="C:\Users\Jerome\Documents\JJazzLab\src\JJazzLab-X\Graphics\SwingTransformer-32x16.png"
     inkscape:export-xdpi="96"
     inkscape:export-ydpi="96" />
</svg>
