<?xml version="1.0" encoding="UTF-8" standalone="no"?>
<!-- Generator: Adobe Illustrator 16.0.0, SVG Export Plug-In . SVG Version: 6.00 Build 0)  -->

<svg
    xmlns:dc="http://purl.org/dc/elements/1.1/"
    xmlns:cc="http://creativecommons.org/ns#"
    xmlns:rdf="http://www.w3.org/1999/02/22-rdf-syntax-ns#"
    xmlns:svg="http://www.w3.org/2000/svg"
    xmlns="http://www.w3.org/2000/svg"
    xmlns:xlink="http://www.w3.org/1999/xlink"
    xmlns:sodipodi="http://sodipodi.sourceforge.net/DTD/sodipodi-0.dtd"
    xmlns:inkscape="http://www.inkscape.org/namespaces/inkscape"
    version="1.1"
    id="Capa_1"
    x="0px"
    y="0px"
    width="512px"
    height="512px"
    viewBox="0 0 932.179 932.179"
    style="enable-background:new 0 0 932.179 932.179;"
    xml:space="preserve"
    sodipodi:docname="GeneralOptions.svg"
    inkscape:version="0.92.3 (2405546, 2018-03-11)"
    inkscape:export-filename="C:\Users\Administrateur.000\Documents\src\JJazzLabX\Graphics\ChordSymbols32x32.png"
    inkscape:export-xdpi="6"
    inkscape:export-ydpi="6"><metadata
    id="metadata4528"><rdf:RDF><cc:Work
    rdf:about=""><dc:format>image/svg+xml</dc:format><dc:type
    rdf:resource="http://purl.org/dc/dcmitype/StillImage" /></cc:Work></rdf:RDF></metadata><defs
    id="defs4526"><linearGradient
    inkscape:collect="always"
    id="linearGradient1033"><stop
    style="stop-color:#483737;stop-opacity:1"
    offset="0"
    id="stop1029" /><stop
    style="stop-color:#3366cc;stop-opacity:1"
    offset="1"
    id="stop1031" /></linearGradient><linearGradient
    inkscape:collect="always"
    id="linearGradient4534"><stop
    style="stop-color:#483737;stop-opacity:1"
    offset="0"
    id="stop4530" /><stop
    style="stop-color:#3366cc;stop-opacity:1"
    offset="1"
    id="stop4532" /></linearGradient><linearGradient
    inkscape:collect="always"
    xlink:href="#linearGradient4534"
    id="linearGradient883"
    gradientUnits="userSpaceOnUse"
    x1="155.65472"
    y1="798.76068"
    x2="759.21387"
    y2="26.840321" /><linearGradient
    inkscape:collect="always"
    xlink:href="#linearGradient4534"
    id="linearGradient885"
    gradientUnits="userSpaceOnUse"
    x1="155.65472"
    y1="798.76068"
    x2="759.21387"
    y2="26.840321" /><linearGradient
    inkscape:collect="always"
    xlink:href="#linearGradient4534"
    id="linearGradient887"
    gradientUnits="userSpaceOnUse"
    x1="155.65472"
    y1="798.76068"
    x2="759.21387"
    y2="26.840321" /><linearGradient
    inkscape:collect="always"
    xlink:href="#linearGradient4534"
    id="linearGradient889"
    gradientUnits="userSpaceOnUse"
    x1="155.65472"
    y1="798.76068"
    x2="759.21387"
    y2="26.840321" /><linearGradient
    inkscape:collect="always"
    xlink:href="#linearGradient4534"
    id="linearGradient889-5"
    gradientUnits="userSpaceOnUse"
    x1="155.65472"
    y1="798.76068"
    x2="759.21387"
    y2="26.840321" /><linearGradient
    inkscape:collect="always"
    xlink:href="#linearGradient1033"
    id="linearGradient1035"
    x1="79.415672"
    y1="773.34766"
    x2="1067.3467"
    y2="7.7805548"
    gradientUnits="userSpaceOnUse" /><linearGradient
    inkscape:collect="always"
    xlink:href="#linearGradient1033"
    id="linearGradient1037"
    gradientUnits="userSpaceOnUse"
    x1="79.415672"
    y1="773.34766"
    x2="1067.3467"
    y2="7.7805548" /><linearGradient
    inkscape:collect="always"
    xlink:href="#linearGradient1033"
    id="linearGradient1039"
    gradientUnits="userSpaceOnUse"
    x1="79.415672"
    y1="773.34766"
    x2="1067.3467"
    y2="7.7805548" /><linearGradient
    inkscape:collect="always"
    xlink:href="#linearGradient1033"
    id="linearGradient1041"
    gradientUnits="userSpaceOnUse"
    x1="79.415672"
    y1="773.34766"
    x2="1067.3467"
    y2="7.7805548" /><linearGradient
    inkscape:collect="always"
    xlink:href="#linearGradient1033"
    id="linearGradient1043"
    gradientUnits="userSpaceOnUse"
    x1="79.415672"
    y1="773.34766"
    x2="1067.3467"
    y2="7.7805548" /><linearGradient
    inkscape:collect="always"
    xlink:href="#linearGradient1033"
    id="linearGradient1045"
    gradientUnits="userSpaceOnUse"
    x1="79.415672"
    y1="773.34766"
    x2="1067.3467"
    y2="7.7805548" /><linearGradient
    inkscape:collect="always"
    xlink:href="#linearGradient1033"
    id="linearGradient1047"
    gradientUnits="userSpaceOnUse"
    x1="79.415672"
    y1="773.34766"
    x2="1067.3467"
    y2="7.7805548" /><linearGradient
    inkscape:collect="always"
    xlink:href="#linearGradient1033"
    id="linearGradient1049"
    gradientUnits="userSpaceOnUse"
    x1="79.415672"
    y1="773.34766"
    x2="1067.3467"
    y2="7.7805548" /><linearGradient
    inkscape:collect="always"
    xlink:href="#linearGradient1033"
    id="linearGradient1051"
    gradientUnits="userSpaceOnUse"
    x1="79.415672"
    y1="773.34766"
    x2="1067.3467"
    y2="7.7805548" /></defs><sodipodi:namedview
    pagecolor="#ffffff"
    bordercolor="#666666"
    borderopacity="1"
    objecttolerance="10"
    gridtolerance="10"
    guidetolerance="10"
    inkscape:pageopacity="0"
    inkscape:pageshadow="2"
    inkscape:window-width="1920"
    inkscape:window-height="1017"
    id="namedview4524"
    showgrid="false"
    inkscape:zoom="0.57314319"
    inkscape:cx="209.47039"
    inkscape:cy="191.90939"
    inkscape:window-x="-8"
    inkscape:window-y="-8"
    inkscape:window-maximized="1"
    inkscape:current-layer="Capa_1" /><g
    id="g4493" /><g
    id="g4495" /><g
    id="g4497" /><g
    id="g4499" /><g
    id="g4501" /><g
    id="g4503" /><g
    id="g4505" /><g
    id="g4507" /><g
    id="g4509" /><g
    id="g4511" /><g
    id="g4513" /><g
    id="g4515" /><g
    id="g4517" /><g
    id="g4519" /><g
    id="g4521" /><g
    transform="matrix(0.86369011,0,0,0.88983256,-984.75422,-139.24972)"
    style="fill:url(#linearGradient889);fill-opacity:1"
    id="g881"><path
    inkscape:connector-curvature="0"
    style="fill:url(#linearGradient883);fill-opacity:1"
    id="path875"
    d="m 61.2,341.538 c 4.9,16.8 11.7,33 20.3,48.2 l -24.5,30.9 c -8,10.1 -7.1,24.5 1.9,33.6 l 42.2,42.2 c 9.1,9.1 23.5,9.899 33.6,1.899 l 30.7,-24.3 c 15.8,9.101 32.6,16.2 50.1,21.2 l 4.6,39.5 c 1.5,12.8 12.3,22.4 25.1,22.4 h 59.7 c 12.8,0 23.6,-9.601 25.1,-22.4 l 4.4,-38.1 c 18.8,-4.9 36.8,-12.2 53.7,-21.7 l 29.7,23.5 c 10.1,8 24.5,7.1 33.6,-1.9 l 42.2,-42.2 c 9.1,-9.1 9.9,-23.5 1.9,-33.6 l -23.1,-29.3 c 9.6,-16.601 17.1,-34.3 22.1,-52.8 l 35.6,-4.1 c 12.801,-1.5 22.4,-12.3 22.4,-25.1 v -59.7 c 0,-12.8 -9.6,-23.6 -22.4,-25.1 l -35.1,-4.1 c -4.801,-18.3 -12,-35.8 -21.199,-52.2 l 21.6,-27.3 c 8,-10.1 7.1,-24.5 -1.9,-33.6 l -42.1,-42.1 c -9.1,-9.1 -23.5,-9.9 -33.6,-1.9 l -26.5,21 c -17.2,-10.1 -35.601,-17.8 -54.9,-23 l -4,-34.3 c -1.5,-12.8 -12.3,-22.4 -25.1,-22.4 h -59.7 c -12.8,0 -23.6,9.6 -25.1,22.4 l -4,34.3 c -19.8,5.3 -38.7,13.3 -56.3,23.8 l -27.5,-21.8 c -10.1,-8 -24.5,-7.1 -33.6,1.9 l -42.2,42.2 c -9.1,9.1 -9.9,23.5 -1.9,33.6 l 23,29.1 c -9.2,16.6 -16.2,34.3 -20.8,52.7 l -36.8,4.2 c -12.8,1.5 -22.4,12.3 -22.4,25.1 v 59.7 c 0,12.8 9.6,23.6 22.4,25.1 z m 216.3,-161.5 c 54.4,0 98.7,44.3 98.7,98.7 0,54.4 -44.3,98.7 -98.7,98.7 -54.399,0 -98.7,-44.3 -98.7,-98.7 0,-54.4 44.3,-98.7 98.7,-98.7 z" /><path
    inkscape:connector-curvature="0"
    style="fill:url(#linearGradient885);fill-opacity:1"
    id="path877"
    d="m 867.699,356.238 -31.5,-26.6 c -9.699,-8.2 -24,-7.8 -33.199,0.9 l -17.4,16.3 c -14.699,-7.1 -30.299,-12.1 -46.4,-15 l -4.898,-24 c -2.5,-12.4 -14,-21 -26.602,-20 l -41.1,3.5 c -12.6,1.1 -22.5,11.4 -22.9,24.1 l -0.799,24.4 c -15.801,5.7 -30.701,13.5 -44.301,23.3 l -20.799,-13.8 c -10.602,-7 -24.701,-5 -32.9,4.7 l -26.6,31.7 c -8.201,9.7 -7.801,24 0.898,33.2 l 18.201,19.399 c -6.301,14.2 -10.801,29.101 -13.4,44.4 l -26,5.3 c -12.4,2.5 -21,14 -20,26.601 l 3.5,41.1 c 1.1,12.6 11.4,22.5 24.1,22.9 l 28.1,0.899 c 5.102,13.4 11.801,26.101 19.9,38 l -15.699,23.7 c -7,10.6 -5,24.7 4.699,32.9 l 31.5,26.6 c 9.701,8.2 24,7.8 33.201,-0.9 l 20.6,-19.3 c 13.5,6.3 27.699,11 42.299,13.8 l 5.701,28.2 c 2.5,12.4 14,21 26.6,20 l 41.1,-3.5 c 12.6,-1.1 22.5,-11.399 22.9,-24.1 l 0.9,-27.601 c 15,-5.3 29.199,-12.5 42.299,-21.399 l 22.701,15 c 10.6,7 24.699,5 32.9,-4.7 l 26.6,-31.5 c 8.199,-9.7 7.799,-24 -0.9,-33.2 L 872.7,592.138 c 6.701,-14.2 11.602,-29.2 14.4,-44.601 l 25,-5.1 c 12.4,-2.5 21,-14 20,-26.601 l -3.5,-41.1 c -1.1,-12.6 -11.4,-22.5 -24.1,-22.9 l -25.1,-0.8 c -5.201,-14.6 -12.201,-28.399 -20.9,-41.2 l 13.699,-20.6 c 7.201,-10.598 5.201,-24.798 -4.5,-32.998 z M 712.801,593.837 c -44.4,3.801 -83.602,-29.3 -87.301,-73.699 -3.801,-44.4 29.301,-83.601 73.699,-87.301 44.4,-3.8 83.602,29.301 87.301,73.7 3.801,44.401 -29.301,83.601 -73.699,87.3 z" /><path
    inkscape:connector-curvature="0"
    style="fill:url(#linearGradient887);fill-opacity:1"
    id="path879"
    d="m 205,704.438 c -12.6,1.3 -22.3,11.899 -22.4,24.6 l -0.3,25.3 c -0.2,12.7 9.2,23.5 21.8,25.101 l 18.6,2.399 c 3.1,11.301 7.5,22.101 13.2,32.301 l -12,14.8 c -8,9.899 -7.4,24.1 1.5,33.2 l 17.7,18.1 c 8.9,9.1 23.1,10.1 33.2,2.3 l 14.899,-11.5 c 10.5,6.2 21.601,11.101 33.2,14.5 l 2,19.2 c 1.3,12.6 11.9,22.3 24.6,22.4 l 25.301,0.3 c 12.699,0.2 23.5,-9.2 25.1,-21.8 l 2.3,-18.2 c 12.601,-3.101 24.601,-7.8 36,-14 l 14,11.3 c 9.9,8 24.101,7.4 33.201,-1.5 l 18.1,-17.7 c 9.1,-8.899 10.1,-23.1 2.301,-33.2 L 496.6,818.438 c 6.6,-11 11.701,-22.7 15.201,-35 l 16.6,-1.7 c 12.6,-1.3 22.299,-11.9 22.4,-24.6 l 0.299,-25.301 c 0.201,-12.699 -9.199,-23.5 -21.799,-25.1 l -16.201,-2.1 c -3.1,-12.2 -7.699,-24 -13.699,-35 l 10.1,-12.4 c 8,-9.9 7.4,-24.1 -1.5,-33.2 l -17.699,-18.1 c -8.9,-9.101 -23.102,-10.101 -33.201,-2.3 l -12.101,9.3 c -11.399,-6.9 -23.6,-12.2 -36.399,-15.8 L 407,581.437 c -1.3,-12.601 -11.899,-22.3 -24.6,-22.4 l -25.3,-0.3 c -12.7,-0.2 -23.5,9.2 -25.101,21.8 l -2,15.601 c -13.199,3.399 -25.899,8.6 -37.699,15.399 l -12.5,-10.2 c -9.9,-8 -24.101,-7.399 -33.201,1.5 l -18.2,17.801 c -9.1,8.899 -10.1,23.1 -2.3,33.199 l 10.7,13.801 c -6.2,11 -11.1,22.699 -14.3,35 z m 163.3,-28.601 c 36.3,0.4 65.399,30.301 65,66.601 -0.4,36.3 -30.301,65.399 -66.601,65 -36.3,-0.4 -65.399,-30.3 -65,-66.601 0.401,-36.299 30.301,-65.399 66.601,-65 z" /></g><g
    id="g1027"
    style="fill:url(#linearGradient1035);fill-opacity:1"
    transform="translate(-4.2581527e-6,19.602742)"><flowRoot
    xml:space="preserve"
    id="flowRoot913"
    style="font-style:normal;font-variant:normal;font-weight:normal;font-stretch:normal;font-size:39.99928665px;line-height:1.25;font-family:'Berlin Sans FB';-inkscape-font-specification:'Berlin Sans FB, Normal';font-variant-ligatures:normal;font-variant-caps:normal;font-variant-numeric:normal;font-feature-settings:normal;text-align:start;letter-spacing:0px;word-spacing:0px;writing-mode:lr-tb;text-anchor:start;opacity:1;vector-effect:none;fill:url(#linearGradient1043);fill-opacity:1;stroke:none;stroke-width:0.09304559;stroke-linecap:butt;stroke-linejoin:miter;stroke-miterlimit:4;stroke-dasharray:none;stroke-dashoffset:0;stroke-opacity:1"
    transform="matrix(9.4218752,0,0,9.4218752,-478.31986,-491.90124)"><flowRegion
    style="font-style:normal;font-variant:normal;font-weight:normal;font-stretch:normal;font-size:39.99928665px;font-family:'Berlin Sans FB';-inkscape-font-specification:'Berlin Sans FB, Normal';font-variant-ligatures:normal;font-variant-caps:normal;font-variant-numeric:normal;font-feature-settings:normal;text-align:start;writing-mode:lr-tb;text-anchor:start;vector-effect:none;fill:url(#linearGradient1039);fill-opacity:1;stroke:none;stroke-width:0.09304559;stroke-linecap:butt;stroke-linejoin:miter;stroke-miterlimit:4;stroke-dasharray:none;stroke-dashoffset:0;stroke-opacity:1"
    id="flowRegion909"><rect
    style="font-style:normal;font-variant:normal;font-weight:normal;font-stretch:normal;font-size:39.99928665px;font-family:'Berlin Sans FB';-inkscape-font-specification:'Berlin Sans FB, Normal';font-variant-ligatures:normal;font-variant-caps:normal;font-variant-numeric:normal;font-feature-settings:normal;text-align:start;writing-mode:lr-tb;text-anchor:start;vector-effect:none;fill:url(#linearGradient1037);fill-opacity:1;stroke:none;stroke-width:0.09304559;stroke-linecap:butt;stroke-linejoin:miter;stroke-miterlimit:4;stroke-dasharray:none;stroke-dashoffset:0;stroke-opacity:1"
    id="rect907"
    width="198.90315"
    height="69.790573"
    x="71.535355"
    y="96.746002" /></flowRegion><flowPara
    id="flowPara911"
    style="fill:url(#linearGradient1041);fill-opacity:1">C-7</flowPara></flowRoot><flowRoot
    transform="matrix(9.4218752,0,0,9.4218752,-563.70407,-888.29763)"
    style="font-style:normal;font-variant:normal;font-weight:normal;font-stretch:normal;font-size:39.99928665px;line-height:1.25;font-family:'Berlin Sans FB';-inkscape-font-specification:'Berlin Sans FB, Normal';font-variant-ligatures:normal;font-variant-caps:normal;font-variant-numeric:normal;font-feature-settings:normal;text-align:start;letter-spacing:0px;word-spacing:0px;writing-mode:lr-tb;text-anchor:start;opacity:1;vector-effect:none;fill:url(#linearGradient1051);fill-opacity:1;stroke:none;stroke-width:0.09304559;stroke-linecap:butt;stroke-linejoin:miter;stroke-miterlimit:4;stroke-dasharray:none;stroke-dashoffset:0;stroke-opacity:1"
    id="flowRoot891-4"
    xml:space="preserve"><flowRegion
    style="font-style:normal;font-variant:normal;font-weight:normal;font-stretch:normal;font-size:39.99928665px;font-family:'Berlin Sans FB';-inkscape-font-specification:'Berlin Sans FB, Normal';font-variant-ligatures:normal;font-variant-caps:normal;font-variant-numeric:normal;font-feature-settings:normal;text-align:start;writing-mode:lr-tb;text-anchor:start;vector-effect:none;fill:url(#linearGradient1047);fill-opacity:1;stroke-width:0.09304559;stroke-linecap:butt;stroke-linejoin:miter;stroke-miterlimit:4;stroke-dasharray:none;stroke-dashoffset:0;stroke-opacity:1"
    id="flowRegion893-9"><rect
    style="font-style:normal;font-variant:normal;font-weight:normal;font-stretch:normal;font-size:39.99928665px;font-family:'Berlin Sans FB';-inkscape-font-specification:'Berlin Sans FB, Normal';font-variant-ligatures:normal;font-variant-caps:normal;font-variant-numeric:normal;font-feature-settings:normal;text-align:start;writing-mode:lr-tb;text-anchor:start;vector-effect:none;fill:url(#linearGradient1045);fill-opacity:1;stroke-width:0.09304559;stroke-linecap:butt;stroke-linejoin:miter;stroke-miterlimit:4;stroke-dasharray:none;stroke-dashoffset:0;stroke-opacity:1"
    y="96.746002"
    x="71.535355"
    height="69.790573"
    width="198.90315"
    id="rect895-1" /></flowRegion><flowPara
    id="flowPara901-8"
    style="fill:url(#linearGradient1049);fill-opacity:1">Cm7</flowPara></flowRoot></g></svg>