<?xml version="1.0" encoding="iso-8859-1"?>
<!-- Generator: Adobe Illustrator 16.0.0, SVG Export Plug-In . SVG Version: 6.00 Build 0)  -->
<!DOCTYPE svg PUBLIC "-//W3C//DTD SVG 1.1//EN" "http://www.w3.org/Graphics/SVG/1.1/DTD/svg11.dtd">
<svg version="1.1" id="Capa_1" xmlns="http://www.w3.org/2000/svg" xmlns:xlink="http://www.w3.org/1999/xlink" x="0px" y="0px"
	 width="468.676px" height="468.676px" viewBox="0 0 468.676 468.676" style="enable-background:new 0 0 468.676 468.676;"
	 xml:space="preserve">
<g>
	<path d="M463.854,80.643l2.124-5.933c-10.796-9.287-6.136-21.826-6.136-21.826l-32.688-19.732l-3.218,3.687
		c-8.98-5.273-19.484-12.585-30.713-22.758c-32.501-29.447-77.752-12.113-107.937,46.444c-7.43,14.42-22.485,42.415-40.939,76.375
		l-11.107-5.895l-17.326,32.639l10.764,5.72c-4.126,7.566-8.333,15.274-12.604,23.087l-12.229-6.494l-17.326,32.641l11.806,6.268
		c-4.913,8.965-9.828,17.93-14.703,26.81l-12.619-6.7l-17.326,32.637l12.167,6.46C128.518,348.317,99.6,400.706,99.6,400.706
		s-5.805,13.986-14.513,9.814c-8.702-4.172-13.341-7.851,0-24.87c13.347-17.004,56.677-66.728,55.903-168.127
		c0,0-1.541-11.776,23.213-31.4l-156.18,16.36c0,0,19.857,7.747,31.601,18.314c13.992,12.583,31.725,58.228-8.51,113.827
		c-40.232,55.611-37.135,89.634,5.42,115.79c42.557,26.177,102.907,28.137,124.571-20.27
		c21.666-48.417,168.67-381.396,168.67-381.396s11.605-38.602,58.032-14.391l26.204,13.85l-3.687,4.232L463.854,80.643z"/>
</g>
<g>
</g>
<g>
</g>
<g>
</g>
<g>
</g>
<g>
</g>
<g>
</g>
<g>
</g>
<g>
</g>
<g>
</g>
<g>
</g>
<g>
</g>
<g>
</g>
<g>
</g>
<g>
</g>
<g>
</g>
</svg>
