<?xml version="1.0" encoding="iso-8859-1"?>
<!-- Generator: Adobe Illustrator 16.0.0, SVG Export Plug-In . SVG Version: 6.00 Build 0)  -->
<!DOCTYPE svg PUBLIC "-//W3C//DTD SVG 1.1//EN" "http://www.w3.org/Graphics/SVG/1.1/DTD/svg11.dtd">
<svg version="1.1" id="Capa_1" xmlns="http://www.w3.org/2000/svg" xmlns:xlink="http://www.w3.org/1999/xlink" x="0px" y="0px"
	 width="451.349px" height="451.35px" viewBox="0 0 451.349 451.35" style="enable-background:new 0 0 451.349 451.35;"
	 xml:space="preserve">
<g>
	<path d="M83.559,395.768l35.47-35.462c2.817,6.083,6.67,11.79,11.671,16.803l10.684,10.672
		c11.117,11.133,25.9,17.248,41.624,17.248c15.725,0,30.512-6.115,41.621-17.248l19.078-19.075l12.559,12.56
		c5.05,5.049,13.253,5.049,18.307,0c5.061-5.062,5.061-13.265,0-18.322l-12.552-12.543l12.215-12.215l12.543,12.551
		c5.058,5.062,13.261,5.062,18.322,0c5.053-5.053,5.053-13.256,0-18.306l-12.56-12.56l12.207-12.202l12.555,12.547
		c5.062,5.054,13.265,5.054,18.318,0c5.05-5.049,5.05-13.252,0-18.313l-12.552-12.56l32.048-32.043
		c11.112-11.117,17.231-25.896,17.231-41.617c0-15.724-6.119-30.505-17.231-41.621l-10.68-10.688
		c-4.801-4.795-10.299-8.592-16.246-11.445c72.947-66.203,123.152-68,123.152-68L367.411,0
		c-2.545,48.327-84.444,139.386-84.444,139.386l-54.938,54.932l-11.445-11.445c-5.058-5.055-7.153,1.046-12.208,6.111
		c-5.058,5.055-11.163,7.147-6.107,12.205l11.447,11.445l-12.209,12.208l-11.447-11.445c-5.051-5.058-7.149,1.042-12.204,6.105
		c-5.056,5.063-11.163,7.153-6.109,12.205l11.445,11.453l-12.205,12.207l-11.447-11.445c-5.055-5.054-7.151,1.042-12.207,6.107
		c-5.057,5.053-11.163,7.145-6.107,12.206l11.445,11.445l-93.601,93.598c-7.867,7.866-7.867,20.622,0,28.489
		C62.936,403.634,75.694,403.634,83.559,395.768z M202.427,365.596c-10.369,10.362-28.447,10.379-38.834,0l-10.684-10.681
		c-5.646-5.642-8.229-13.156-7.922-20.569l32.171-32.168l44.346,44.342L202.427,365.596z M239.818,328.198l-44.344-44.343
		l12.209-12.206l44.35,44.342L239.818,328.198z M270.338,297.678l-44.342-44.351l12.206-12.206l44.343,44.35L270.338,297.678z
		 M332.911,196.273c5.186,5.189,8.035,12.083,8.035,19.416c0,7.34-2.85,14.23-8.035,19.424l-32.044,32.043l-44.35-44.346
		l45.155-45.156c0.389-0.018,0.758-0.11,1.143-0.11c7.329,0,14.218,2.855,19.42,8.039L332.911,196.273z"/>
	<path d="M128.131,255.143l18.795-18.791c1.956-1.959,1.431-5.654-1.184-8.279c-2.615-2.609-6.313-3.134-8.277-1.182l-18.793,18.803
		c-1.956,1.943-1.427,5.654,1.188,8.263C122.475,256.577,126.169,257.098,128.131,255.143z"/>
	<path d="M159.417,223.86l18.791-18.792c1.956-1.956,1.431-5.663-1.184-8.277c-2.615-2.613-6.31-3.138-8.271-1.184l-18.795,18.794
		c-1.954,1.956-1.429,5.661,1.184,8.275C153.756,225.291,157.456,225.816,159.417,223.86z"/>
	<path d="M189.938,193.338l18.795-18.795c1.956-1.953,1.429-5.656-1.184-8.271c-2.615-2.615-6.314-3.14-8.277-1.184l-18.793,18.792
		c-1.956,1.956-1.427,5.659,1.188,8.273C184.279,194.767,187.976,195.292,189.938,193.338z"/>
	<polygon points="57.739,413.7 37.649,393.607 0.007,406.84 44.518,451.35 	"/>
</g>
<g>
</g>
<g>
</g>
<g>
</g>
<g>
</g>
<g>
</g>
<g>
</g>
<g>
</g>
<g>
</g>
<g>
</g>
<g>
</g>
<g>
</g>
<g>
</g>
<g>
</g>
<g>
</g>
<g>
</g>
</svg>
