<?xml version="1.0" encoding="UTF-8" standalone="no"?>
<!-- Generator: Adobe Illustrator 16.0.0, SVG Export Plug-In . SVG Version: 6.00 Build 0)  -->

<svg
    xmlns:dc="http://purl.org/dc/elements/1.1/"
    xmlns:cc="http://creativecommons.org/ns#"
    xmlns:rdf="http://www.w3.org/1999/02/22-rdf-syntax-ns#"
    xmlns:svg="http://www.w3.org/2000/svg"
    xmlns="http://www.w3.org/2000/svg"
    xmlns:sodipodi="http://sodipodi.sourceforge.net/DTD/sodipodi-0.dtd"
    xmlns:inkscape="http://www.inkscape.org/namespaces/inkscape"
    version="1.1"
    id="Capa_1"
    x="0px"
    y="0px"
    width="507.451px"
    height="507.45px"
    viewBox="0 0 507.451 507.45"
    style="enable-background:new 0 0 507.451 507.45;"
    xml:space="preserve"
    inkscape:version="0.48.4 r9939"
    sodipodi:docname="Settings.svg"
    inkscape:export-filename="E:\data\src\Graphics\settings16x16.png"
    inkscape:export-xdpi="2.5203717"
    inkscape:export-ydpi="2.5203717"><metadata
    id="metadata42"><rdf:RDF><cc:Work
    rdf:about=""><dc:format>image/svg+xml</dc:format><dc:type
    rdf:resource="http://purl.org/dc/dcmitype/StillImage" /><dc:title /></cc:Work></rdf:RDF></metadata><defs
    id="defs40" /><sodipodi:namedview
    pagecolor="#ffffff"
    bordercolor="#666666"
    borderopacity="1"
    objecttolerance="10"
    gridtolerance="10"
    guidetolerance="10"
    inkscape:pageopacity="0"
    inkscape:pageshadow="2"
    inkscape:window-width="884"
    inkscape:window-height="597"
    id="namedview38"
    showgrid="false"
    inkscape:zoom="0.46507044"
    inkscape:cx="253.72549"
    inkscape:cy="253.72501"
    inkscape:window-x="465"
    inkscape:window-y="41"
    inkscape:window-maximized="0"
    inkscape:current-layer="Capa_1" />
<g
    id="g3"
    style="fill:#808080"
    inkscape:export-filename="E:\data\src\Graphics\settings12x12.png"
    inkscape:export-xdpi="1.8"
    inkscape:export-ydpi="1.8">
	<g
    id="settings"
    style="fill:#808080">
		<path
    d="M440.813,280.5c0-7.65,2.55-15.3,2.55-25.5s0-17.85-2.55-25.5l53.55-43.35c5.1-5.1,5.1-10.2,2.55-15.3l-51-89.25    c-2.55-2.55-7.649-5.1-15.3-2.55l-63.75,25.5c-12.75-10.2-28.05-17.85-43.35-25.5l-10.2-66.3C315.863,5.1,308.212,0,303.113,0    h-102c-5.101,0-12.75,5.1-12.75,10.2l-10.2,68.85c-15.3,5.1-28.05,15.3-43.35,25.5l-61.2-25.5c-7.65-2.55-12.75,0-17.851,5.1    l-51,89.25c-2.55,2.55,0,10.2,5.1,15.3l53.55,40.8c0,7.65-2.55,15.3-2.55,25.5s0,17.85,2.55,25.5l-53.55,43.35    c-5.1,5.101-5.1,10.2-2.55,15.301l51,89.25c2.55,2.55,7.649,5.1,15.3,2.55l63.75-25.5c12.75,10.2,28.05,17.85,43.35,25.5    l10.2,66.3c0,5.1,5.1,10.2,12.75,10.2h102c5.101,0,12.75-5.101,12.75-10.2l10.2-66.3c15.3-7.65,30.6-15.3,43.35-25.5l63.75,25.5    c5.101,2.55,12.75,0,15.301-5.101l51-89.25c2.55-5.1,2.55-12.75-2.551-15.3L440.813,280.5z M252.113,344.25    c-48.45,0-89.25-40.8-89.25-89.25s40.8-89.25,89.25-89.25s89.25,40.8,89.25,89.25S300.563,344.25,252.113,344.25z"
    id="path6"
    style="fill:#808080" />
	</g>
</g>
<g
    id="g8">
</g>
<g
    id="g10">
</g>
<g
    id="g12">
</g>
<g
    id="g14">
</g>
<g
    id="g16">
</g>
<g
    id="g18">
</g>
<g
    id="g20">
</g>
<g
    id="g22">
</g>
<g
    id="g24">
</g>
<g
    id="g26">
</g>
<g
    id="g28">
</g>
<g
    id="g30">
</g>
<g
    id="g32">
</g>
<g
    id="g34">
</g>
<g
    id="g36">
</g>
</svg>